<?xml version="1.0" encoding="utf-8"?>
<!-- Generator: Adobe Illustrator 24.3.0, SVG Export Plug-In . SVG Version: 6.00 Build 0)  -->
<svg version="1.1" id="Layer_1" xmlns="http://www.w3.org/2000/svg" xmlns:xlink="http://www.w3.org/1999/xlink" x="0px" y="0px"
	 viewBox="0 0 328.2 114.3" style="enable-background:new 0 0 328.2 114.3;" xml:space="preserve">
<style type="text/css">
	.st0{fill:#EA0A8C;}
	.st1{fill:#FFFFFF;}
	.st2{fill:#FAA21B;}
</style>
<rect class="st0" width="114.3" height="114.3"/>
<path class="st1" d="M26.8,68.2c0.1-1.2,0.3-2.4,0.6-3.6c-5.1-6.6-7.9-14.7-7.9-23V33h18.4v10.4c0,1.3,0.1,2.5,0.4,3.8
	c1.7-1.4,3.6-2.6,5.6-3.5c0-0.1,0-0.2,0-0.2V30c0-1.7-1.3-3-3-3H16.5c-1.7,0-3,1.3-3,3v11.6c0,9.6,3.2,19,9.1,26.6H26.8z"/>
<path class="st1" d="M57.1,56.7c-4.9,0-9.4-2.7-11.7-7c-1.8,1-3.4,2.1-4.9,3.5c5.3,9.2,17.1,12.3,26.2,6.9c2.9-1.7,5.2-4.1,6.9-6.9
	c-1.5-1.4-3.1-2.5-4.9-3.5C66.5,54,62,56.7,57.1,56.7z"/>
<path class="st1" d="M84.6,74.2H76c-11.7,6.8-26.1,6.8-37.8,0H28.1c16.5,14.8,41.5,14.8,58.1,0H84.6z"/>
<path class="st1" d="M97.8,27H73.4c-0.8,0-1.6,0.3-2.1,0.9c-0.6,0.6-0.9,1.3-0.9,2.1v13.4c0,0.1,0,0.2,0,0.2c2,1,3.9,2.2,5.6,3.5
	c0.2-1.2,0.4-2.5,0.4-3.8V33h18.4v8.6c0,8.3-2.8,16.4-7.9,23c0.3,1.2,0.4,2.4,0.6,3.6h4.3c5.9-7.6,9-17,9-26.6V30
	C100.8,28.4,99.4,27,97.8,27z"/>
<path class="st2" d="M48.7,53.6c4.9,4.1,12.1,4.1,17,0C60.3,50.9,54,50.9,48.7,53.6z"/>
<path class="st2" d="M37.9,40.3v-6.8c-7.2,3.6-13.3,9-17.6,15.8c0.6,2.7,1.4,5.3,2.6,7.8C26,50.1,31.3,44.3,37.9,40.3z"/>
<path class="st2" d="M91.4,57.1c1.1-2.5,2-5.1,2.6-7.8C89.7,42.5,83.6,37,76.4,33.5v6.8C83,44.3,88.2,50.1,91.4,57.1z"/>
<path class="st2" d="M100.8,72.7c0-5.3-1-10.6-2.9-15.6c-1.5,3.9-3.6,7.6-6.2,11h-4.2c-1.7-16.8-16.6-29-33.4-27.3
	c-14.5,1.4-25.9,12.9-27.3,27.3h-4.2c-2.6-3.3-4.7-7.1-6.2-11c-1.9,5-2.9,10.2-2.9,15.5v11.6c0,1.7,1.3,3,3,3h24.4
	c0.8,0,1.5-0.3,2.1-0.9c0.6-0.6,0.9-1.3,0.9-2.1v-1c-2.1-0.7-4.1-1.5-6-2.4v0.5H19.5v-7.1h18.8c1.8,1.1,3.7,2,5.7,2.7v-2.7h26.5v2.7
	c2-0.7,3.8-1.6,5.6-2.7h18.8v7.1H76.4v-0.5c-1.9,1-3.9,1.8-6,2.4v1c0,1.7,1.3,3,3,3h24.4c1.7,0,3-1.3,3-3L100.8,72.7z M76.2,68.2
	c-0.6-4.2-2.5-8-5.5-11c-1.5,1.4-3.2,2.6-5,3.5c2.3,1.9,3.9,4.6,4.5,7.5H44.2c0.6-2.9,2.2-5.6,4.5-7.5c-1.8-0.9-3.5-2.1-5-3.5
	c-3,3-5,6.8-5.5,11h-5.3c1.6-13.4,13.9-23,27.3-21.4c11.2,1.4,20,10.2,21.4,21.4H76.2z"/>
<path class="st2" d="M57.1,35c4.5,0,9,0.8,13.2,2.4v-6.3c-8.6-2.7-17.9-2.7-26.5,0v6.4C48.1,35.8,52.6,35,57.1,35z"/>
<path class="st2" d="M163.6,45.7h-22.7l-3,6.4h-5.2l17.1-36.7h4.9l17.1,36.7h-5.2L163.6,45.7z M143.1,41h18.3l-9.2-19.8L143.1,41z"
	/>
<path class="st2" d="M181.2,15.4v36.7h-4.7V15.4H181.2z"/>
<path class="st2" d="M206,15.4c4.7,0,9.3,1.8,12.7,5l-2.1,4.5c-2.8-3-6.7-4.8-10.8-4.8c-7.9,0-13.5,5.5-13.5,13.6
	s5.6,13.6,13.6,13.6c6.9,0,11.7-4.1,12.5-10.4h-14v-4.7h19.3v0.2c0,11.5-6.5,19.6-17.6,19.6c-10.9,0-18.6-7.9-18.6-18.3
	S195.3,15.4,206,15.4z"/>
<path class="st2" d="M253.6,45.7h-22.8l-3,6.4h-5.2l17.1-36.7h4.9l17.1,36.7h-5.2L253.6,45.7z M233,41h18.4l-9.2-19.8L233,41z"/>
<path class="st0" d="M169.3,62.1v19.7c0,10.1-7.3,17-17,17s-17.1-6.9-17.1-17V62.1h7.3v19.7c0,6,4.2,9.7,9.8,9.7s9.7-3.7,9.7-9.7
	V62.1H169.3z"/>
<path class="st0" d="M208.5,62.1v36.7h-6.4l-19.8-24.1v24.1H175V62.1h6.4l19.8,24.1V62.1H208.5z"/>
<path class="st0" d="M222.3,62.1v36.7H215V62.1H222.3z"/>
<path class="st0" d="M242.3,62.1c10.4,0,18,7.8,18,18.3s-7.6,18.3-18,18.3H229V62.1H242.3z M242.3,69.5h-6v22h6
	c6.3,0,10.6-4.7,10.6-11S248.6,69.5,242.3,69.5z"/>
<path class="st0" d="M282.5,62.1c9.9-0.2,18.1,7.6,18.3,17.5c0,0.3,0,0.6,0,0.9c0.2,10.1-7.8,18.5-17.9,18.8
	c-10.1,0.2-18.5-7.8-18.8-17.9c0-0.3,0-0.6,0-0.9c-0.2-9.9,7.6-18.1,17.5-18.3C281.9,62.1,282.2,62.1,282.5,62.1z M282.5,69.5
	c-5.8-0.2-10.8,4.3-11,10.1c0,0.3,0,0.6,0,0.9c0,6.1,4.9,11,11,11s11-4.9,11-11l0,0c0.2-5.8-4.3-10.8-10.2-11
	C283.1,69.4,282.8,69.4,282.5,69.5z"/>
<path class="st0" d="M316,62.1c6.2,0,10.9,3.3,12.2,9.3l-6.7,2.7c-0.7-3.3-2.7-4.6-5.6-4.6s-4.5,1.4-4.5,3.2c0,2.6,2.8,3.4,6.7,4.6
	c5,1.6,9.6,4,9.6,10.8s-5.1,10.6-11.8,10.6c-5.7,0-10.9-2.7-12.3-9.3l6.5-2.8c0.7,3.2,2.6,4.8,5.8,4.8c2.8,0,4.5-1.3,4.5-3.3
	c0-2.7-2.9-3.5-6.5-4.6c-4.6-1.5-9.9-3.9-9.9-11C304.2,66,309.2,62.1,316,62.1z"/>
</svg>
