<svg xmlns="http://www.w3.org/2000/svg" width="128.969" height="85.974" viewBox="0 0 128.969 85.974"><defs><style>.a{fill:#fc8e03;}</style></defs><path class="a" d="M229.431,163.537A4.428,4.428,0,0,1,225,167.966H104.891a4.428,4.428,0,0,1-4.429-4.429l.013-17.066a64.477,64.477,0,1,1,128.953,0Zm-59.518-29.849,30.24-30.242a55.35,55.35,0,0,0-30.24-12.362ZM161.055,91a55.323,55.323,0,0,0-30.709,11.973l30.709,30.711Zm15.123,48.948h44a55.4,55.4,0,0,0-13.64-30.361Zm-66.449,0h45.063l-30.927-30.928A55.437,55.437,0,0,0,109.729,139.951Zm110.843,19.158v-10.3H109.331l-.008,10.3Z" transform="translate(-100.462 -81.992)"/></svg>