<svg xmlns="http://www.w3.org/2000/svg" width="103.633" height="71.839" viewBox="0 0 103.633 71.839"><defs><style>.a{fill:#de007a;}.b{fill:#fc8e03;}</style></defs><g transform="translate(-224.17 -1925.539)"><g transform="translate(224.17 1925.539)"><path class="a" d="M1227.279,313.44a36.823,36.823,0,0,1,.677-4.235,44.836,44.836,0,0,1-9.357-27.458V271.541h21.878l0,12.426a23,23,0,0,0,.445,4.485,36.273,36.273,0,0,1,6.687-4.207c0-.093-.014-.184-.014-.278l0-16a3.569,3.569,0,0,0-3.56-3.578h-29a3.567,3.567,0,0,0-3.56,3.577l0,13.784a51.972,51.972,0,0,0,10.74,31.693Z" transform="translate(-1211.478 -264.371)"/><path class="a" d="M1256.37,293.829a15.7,15.7,0,0,1-13.858-8.383,29.222,29.222,0,0,0-5.809,4.171,22.7,22.7,0,0,0,39.335,0,29.181,29.181,0,0,0-5.809-4.172A15.7,15.7,0,0,1,1256.37,293.829Z" transform="translate(-1204.554 -258.452)"/><path class="a" d="M1292.189,308.263h-10.238a44.339,44.339,0,0,1-44.8,0H1225.1a51.484,51.484,0,0,0,68.911,0Z" transform="translate(-1207.74 -252.039)"/><path class="a" d="M1297.014,264.389c-1.977,0-29-.015-29-.015h0a3.552,3.552,0,0,0-2.516,1.047,3.591,3.591,0,0,0-1.044,2.531l0,16.02c0,.094-.013.184-.014.278a36.265,36.265,0,0,1,6.687,4.207,23,23,0,0,0,.445-4.485l0-12.44,21.882.012-.008,10.207a44.83,44.83,0,0,1-9.352,27.45,36.231,36.231,0,0,1,.679,4.243h5.051a51.969,51.969,0,0,0,10.74-31.693l.01-13.784A3.568,3.568,0,0,0,1297.014,264.389Z" transform="translate(-1196.94 -264.374)"/></g><g transform="translate(224.17 1927.926)"><path class="b" d="M1244.238,289.636a15.583,15.583,0,0,0,20.128,0,22.445,22.445,0,0,0-20.128,0Z" transform="translate(-1202.485 -260.331)"/><path class="b" d="M1238.739,278.537l0-8.132a52.255,52.255,0,0,0-20.922,18.886,44.69,44.69,0,0,0,3.049,9.311A45.139,45.139,0,0,1,1238.739,278.537Z" transform="translate(-1209.739 -265.066)"/><path class="b" d="M1287.907,298.6a44.622,44.622,0,0,0,3.051-9.326,52.242,52.242,0,0,0-20.923-18.876v8.141A45.129,45.129,0,0,1,1287.907,298.6Z" transform="translate(-1195.404 -265.067)"/><path class="b" d="M1315.108,315.269a52.028,52.028,0,0,0-3.41-18.553,52.137,52.137,0,0,1-7.345,13.159h-5.043a36.173,36.173,0,0,0-72.031,0h-5.041a52.118,52.118,0,0,1-7.348-13.14,52.042,52.042,0,0,0-3.4,18.534l-.01,13.784a3.568,3.568,0,0,0,3.56,3.577c1.976,0,29,.015,29,.015h0a3.548,3.548,0,0,0,2.516-1.047,3.588,3.588,0,0,0,1.044-2.53V327.81a51.5,51.5,0,0,1-7.119-2.885v.562l-21.882-.012.006-8.447H1240.9a44.446,44.446,0,0,0,6.7,3.208v-3.208h31.4v3.2a44.261,44.261,0,0,0,6.689-3.2h22.307l0,8.446-21.879,0v-.553A51.384,51.384,0,0,1,1279,327.8v1.245a3.567,3.567,0,0,0,3.559,3.577l29,0h0a3.569,3.569,0,0,0,3.559-3.577Zm-29.243-5.395a22.924,22.924,0,0,0-6.569-13.149,22.918,22.918,0,0,1-5.938,4.227,15.8,15.8,0,0,1,5.3,8.921h-30.724a15.8,15.8,0,0,1,5.3-8.921,22.911,22.911,0,0,1-5.938-4.227,22.921,22.921,0,0,0-6.569,13.149h-6.286a29.057,29.057,0,0,1,57.713,0Z" transform="translate(-1211.478 -263.192)"/><path class="b" d="M1255.519,273.392a44.246,44.246,0,0,1,15.694,2.87v-7.576a51.508,51.508,0,0,0-31.4.005v7.575A44.248,44.248,0,0,1,1255.519,273.392Z" transform="translate(-1203.7 -266.237)"/></g></g></svg>