<svg xmlns="http://www.w3.org/2000/svg" width="133.57" height="84.778" viewBox="0 0 133.57 84.778"><defs><style>.a{fill:#de007a;}</style></defs><path class="a" d="M482.106,283.2H433.318a42.389,42.389,0,1,1,0-84.778h48.787a42.389,42.389,0,1,1,0,84.778Zm-48.787-76.027a33.638,33.638,0,1,0,0,67.276h48.787a33.638,33.638,0,1,0,0-67.276Z" transform="translate(-390.927 -198.426)"/><g transform="translate(17.379 17.019)"><path class="a" d="M476.281,260.836H428.214a25.37,25.37,0,1,1,0-50.741h48.067a25.37,25.37,0,1,1,0,50.741Zm-48.067-41.99a16.619,16.619,0,1,0,0,33.239h48.067a16.619,16.619,0,0,0,0-33.239Z" transform="translate(-402.842 -210.095)"/></g><g transform="translate(36.879 38.014)"><path class="a" d="M471.647,233.241h-51.06a4.375,4.375,0,1,1,0-8.751h51.06a4.375,4.375,0,1,1,0,8.751Z" transform="translate(-416.211 -224.49)"/></g></svg>