<svg xmlns="http://www.w3.org/2000/svg" width="91.353" height="91.353" viewBox="0 0 91.353 91.353"><defs><style>.a{fill:#45b5a6;}</style></defs><path class="a" d="M610.753,83.8H526.708a3.653,3.653,0,0,0-3.654,3.652V171.5a3.655,3.655,0,0,0,3.654,3.654h84.045a3.655,3.655,0,0,0,3.654-3.654V87.455A3.653,3.653,0,0,0,610.753,83.8ZM530.36,144.062h49.3a3.653,3.653,0,0,0,3.654-3.652v-49.3h8.878v61.833H530.36Zm45.648-7.3H530.36v-8.939h33.055a3.655,3.655,0,0,0,3.654-3.654V91.109h8.939ZM530.36,91.109h29.4v29.4h-29.4Zm76.74,76.74H530.36v-7.6h65.485a3.653,3.653,0,0,0,3.654-3.652V91.109h7.6Z" transform="translate(-523.054 -83.803)"/></svg>