<svg xmlns="http://www.w3.org/2000/svg" width="64.183" height="75.274" viewBox="0 0 64.183 75.274"><defs><style>.a{fill:#de007a;}</style></defs><path class="a" d="M359.927,200.777a4.262,4.262,0,0,0-2.918-1.135c-33.109,0-60.046,25.3-60.046,56.4l-.011,14.929a4.007,4.007,0,0,0,4.125,3.875h.491v.072H357v-.072a4.006,4.006,0,0,0,4.125-3.875c0-21.626,0-45.4.013-67.452A3.76,3.76,0,0,0,359.927,200.777Zm-7.045,6.766c0,4.9,0,9.88-.006,14.886H319.613A53.067,53.067,0,0,1,352.882,207.543ZM305.206,267.1l.007-11.054c0-1.176.06-2.338.148-3.5h47.511c0,4.914,0,9.778,0,14.549Zm1.412-22.3a46.815,46.815,0,0,1,6.544-14.621h39.714c0,4.878,0,9.763,0,14.621Z" transform="translate(-296.952 -199.642)"/></svg>