<svg xmlns="http://www.w3.org/2000/svg" width="346" height="346" viewBox="0 0 346 346"><defs><style>.a{fill:#1d1d1d;}.b{fill:#fc8e03;}.c{fill:#de007a;}.d{fill:#45b5a6;}</style></defs><g transform="translate(-6868 -3337)"><rect class="a" width="346" height="346" transform="translate(6868 3337)"/><g transform="translate(6956 3425)"><g transform="translate(0 0)"><path class="b" d="M485.714,248.879a84.9,84.9,0,1,1,84.9-84.9A85,85,0,0,1,485.714,248.879Zm0-158.005a73.106,73.106,0,1,0,73.106,73.1A73.189,73.189,0,0,0,485.714,90.874Z" transform="translate(-400.814 -79.08)"/></g><g transform="translate(23.247 23.245)"><path class="b" d="M472.3,212.216a61.654,61.654,0,1,1,61.653-61.654A61.722,61.722,0,0,1,472.3,212.216Zm0-111.513a49.861,49.861,0,1,0,49.859,49.86A49.916,49.916,0,0,0,472.3,100.7Z" transform="translate(-410.644 -88.909)"/></g><g transform="translate(46.823 46.823)"><path class="b" d="M458.69,175.032a38.076,38.076,0,1,1,38.075-38.078A38.121,38.121,0,0,1,458.69,175.032Zm0-64.359a26.283,26.283,0,1,0,26.284,26.281A26.312,26.312,0,0,0,458.69,110.673Z" transform="translate(-420.613 -98.879)"/></g><g transform="translate(69.003 69.002)"><ellipse class="b" cx="15.897" cy="15.897" rx="15.897" ry="15.897"/></g></g><g transform="translate(6883 3593)"><path class="c" d="M298.073,200.769a3.822,3.822,0,0,1,2.71-1.127,55.928,55.928,0,0,1,55.763,55.966l.011,14.814a3.839,3.839,0,0,1-3.831,3.845h-.456v.071H300.8v-.071a3.838,3.838,0,0,1-3.831-3.845c0-21.46,0-45.049-.012-66.933A3.853,3.853,0,0,1,298.073,200.769Zm6.543,6.714c0,4.866,0,9.8.005,14.771h30.891A47.911,47.911,0,0,0,304.616,207.482Zm44.276,59.095-.007-10.969c0-1.167-.056-2.32-.138-3.468H304.625c0,4.876,0,9.7,0,14.437Zm-1.311-22.126a48.07,48.07,0,0,0-6.077-14.508H304.622c0,4.84,0,9.688,0,14.508Z" transform="translate(-296.952 -199.642)"/></g><g transform="translate(7198.604 3426.696) rotate(180)"><path class="c" d="M298.073,200.769a3.822,3.822,0,0,1,2.71-1.127,55.928,55.928,0,0,1,55.763,55.966l.011,14.814a3.839,3.839,0,0,1-3.831,3.845h-.456v.071H300.8v-.071a3.838,3.838,0,0,1-3.831-3.845c0-21.46,0-45.049-.012-66.933A3.853,3.853,0,0,1,298.073,200.769Zm6.543,6.714c0,4.866,0,9.8.005,14.771h30.891A47.911,47.911,0,0,0,304.616,207.482Zm44.276,59.095-.007-10.969c0-1.167-.056-2.32-.138-3.468H304.625c0,4.876,0,9.7,0,14.437Zm-1.311-22.126a48.07,48.07,0,0,0-6.077-14.508H304.622c0,4.84,0,9.688,0,14.508Z" transform="translate(-296.952 -199.642)"/></g><g transform="translate(6953.604 3439.696) rotate(180)"><path class="d" d="M310.957,204.158c-.014,25.693-.014,53.388-.014,78.583a4.526,4.526,0,0,1-4.538,4.514v.083H245.429v-.083h-.54a4.526,4.526,0,0,1-4.537-4.514l.011-17.392c0-36.23,29.632-65.706,66.056-65.706a4.525,4.525,0,0,1,4.537,4.516Z" transform="translate(-240.353 -199.642)"/></g><g transform="translate(7128 3580)"><path class="d" d="M310.957,204.158c-.014,25.693-.014,53.388-.014,78.583a4.526,4.526,0,0,1-4.538,4.514v.083H245.429v-.083h-.54a4.526,4.526,0,0,1-4.537-4.514l.011-17.392c0-36.23,29.632-65.706,66.056-65.706a4.525,4.525,0,0,1,4.537,4.516Z" transform="translate(-240.353 -199.642)"/></g></g></svg>