<svg xmlns="http://www.w3.org/2000/svg" width="346" height="346" viewBox="0 0 346 346"><defs><style>.a{fill:#434343;}.b{opacity:0.7;}.c{fill:#bebebe;}</style></defs><g transform="translate(-6968 -4570)"><rect class="a" width="346" height="346" transform="translate(6968 4570)"/><g class="b" transform="translate(6608.518 1668.518)"><g transform="translate(385 2927)"><path class="c" d="M653.255,83.8H528.479a5.424,5.424,0,0,0-5.425,5.423V214a5.426,5.426,0,0,0,5.425,5.425H653.255A5.426,5.426,0,0,0,658.679,214V89.226A5.424,5.424,0,0,0,653.255,83.8ZM533.9,173.266h73.193a5.424,5.424,0,0,0,5.425-5.423V94.65H625.7v91.8H533.9Zm67.77-10.845H533.9V149.15h49.075a5.426,5.426,0,0,0,5.425-5.425V94.65h13.27ZM533.9,94.65h43.652V138.3H533.9Zm113.93,113.93H533.9V197.294h97.221a5.424,5.424,0,0,0,5.425-5.423V94.65h11.284Z" transform="translate(-523.054 -83.803)"/></g><g transform="translate(520.625 3221.248) rotate(180)"><path class="c" d="M653.255,83.8H528.479a5.424,5.424,0,0,0-5.425,5.423V214a5.426,5.426,0,0,0,5.425,5.425H653.255A5.426,5.426,0,0,0,658.679,214V89.226A5.424,5.424,0,0,0,653.255,83.8ZM533.9,173.266h73.193a5.424,5.424,0,0,0,5.425-5.423V94.65H625.7v91.8H533.9Zm67.77-10.845H533.9V149.15h49.075a5.426,5.426,0,0,0,5.425-5.425V94.65h13.27ZM533.9,94.65h43.652V138.3H533.9Zm113.93,113.93H533.9V197.294h97.221a5.424,5.424,0,0,0,5.425-5.423V94.65h11.284Z" transform="translate(-523.054 -83.803)"/></g><g transform="translate(543.623 3062.625) rotate(-90)"><path class="c" d="M653.255,83.8H528.479a5.424,5.424,0,0,0-5.425,5.423V214a5.426,5.426,0,0,0,5.425,5.425H653.255A5.426,5.426,0,0,0,658.679,214V89.226A5.424,5.424,0,0,0,653.255,83.8ZM533.9,173.266h73.193a5.424,5.424,0,0,0,5.425-5.423V94.65H625.7v91.8H533.9Zm67.77-10.845H533.9V149.15h49.075a5.426,5.426,0,0,0,5.425-5.425V94.65h13.27ZM533.9,94.65h43.652V138.3H533.9Zm113.93,113.93H533.9V197.294h97.221a5.424,5.424,0,0,0,5.425-5.423V94.65h11.284Z" transform="translate(-523.054 -83.803)"/></g><g transform="translate(543.623 3085.623)"><path class="c" d="M653.255,83.8H528.479a5.424,5.424,0,0,0-5.425,5.423V214a5.426,5.426,0,0,0,5.425,5.425H653.255A5.426,5.426,0,0,0,658.679,214V89.226A5.424,5.424,0,0,0,653.255,83.8ZM533.9,173.266h73.193a5.424,5.424,0,0,0,5.425-5.423V94.65H625.7v91.8H533.9Zm67.77-10.845H533.9V149.15h49.075a5.426,5.426,0,0,0,5.425-5.425V94.65h13.27ZM533.9,94.65h43.652V138.3H533.9Zm113.93,113.93H533.9V197.294h97.221a5.424,5.424,0,0,0,5.425-5.423V94.65h11.284Z" transform="translate(-523.054 -83.803)"/></g></g></g></svg>