<svg id="Layer_1" data-name="Layer 1" xmlns="http://www.w3.org/2000/svg" viewBox="0 0 114.26 114.26"><defs><style>.cls-1{fill:#a4ce39;}.cls-2{fill:#fff;}.cls-3{fill:#3bb54a;}</style></defs><rect class="cls-1" width="114.26" height="114.26"/><path class="cls-2" d="M26.77,68.16a31.64,31.64,0,0,1,.57-3.55,37.48,37.48,0,0,1-7.89-23V33H37.89V43.44a19.33,19.33,0,0,0,.37,3.76,31.23,31.23,0,0,1,5.64-3.53c0-.07,0-.15,0-.23V30a3,3,0,0,0-3-3H16.45a3,3,0,0,0-3,3V41.58a43.47,43.47,0,0,0,9.06,26.58Z"/><path class="cls-2" d="M57.13,56.67a13.23,13.23,0,0,1-11.68-7,24.67,24.67,0,0,0-4.9,3.5,19.19,19.19,0,0,0,33.16,0,24.67,24.67,0,0,0-4.9-3.5A13.24,13.24,0,0,1,57.13,56.67Z"/><path class="cls-2" d="M84.64,74.16H76a37.56,37.56,0,0,1-37.76,0H28.08a43.58,43.58,0,0,0,58.09,0Z"/><path class="cls-2" d="M97.81,27H73.36a3,3,0,0,0-2.12.88A3,3,0,0,0,70.36,30V43.44c0,.08,0,.16,0,.23A31.23,31.23,0,0,1,76,47.2a19.33,19.33,0,0,0,.37-3.76V33H94.8v8.56a37.51,37.51,0,0,1-7.88,23,31.82,31.82,0,0,1,.57,3.56h4.26a43.46,43.46,0,0,0,9-26.58V30A3,3,0,0,0,97.81,27Z"/><path class="cls-3" d="M48.65,53.58a13.18,13.18,0,0,0,17,0,19.06,19.06,0,0,0-17,0Z"/><path class="cls-3" d="M37.9,40.31V33.49A43.91,43.91,0,0,0,20.26,49.32a36.86,36.86,0,0,0,2.57,7.81A37.81,37.81,0,0,1,37.9,40.31Z"/><path class="cls-3" d="M91.42,57.13A37.16,37.16,0,0,0,94,49.31,44,44,0,0,0,76.36,33.48v6.83A37.85,37.85,0,0,1,91.42,57.13Z"/><path class="cls-3" d="M100.8,72.68a43.47,43.47,0,0,0-2.87-15.56,44.13,44.13,0,0,1-6.19,11H87.49a30.51,30.51,0,0,0-60.72,0H22.52a43.83,43.83,0,0,1-6.19-11,43.36,43.36,0,0,0-2.87,15.54V84.24a3,3,0,0,0,3,3H40.9A3,3,0,0,0,43,86.37a3,3,0,0,0,.88-2.12v-1a43,43,0,0,1-6-2.42v.47H19.45V74.16H38.25a38,38,0,0,0,5.65,2.69V74.16H70.36v2.68A37.39,37.39,0,0,0,76,74.16H94.8v7.08H76.36v-.47a42.49,42.49,0,0,1-6,2.42v1a3,3,0,0,0,3,3H97.81a3,3,0,0,0,3-3ZM76.15,68.16a19.14,19.14,0,0,0-5.53-11,19.29,19.29,0,0,1-5,3.55,13.2,13.2,0,0,1,4.47,7.48H44.18a13.2,13.2,0,0,1,4.47-7.48,19.29,19.29,0,0,1-5-3.55,19.21,19.21,0,0,0-5.54,11H32.81a24.5,24.5,0,0,1,48.64,0Z"/><path class="cls-3" d="M57.13,35a37.46,37.46,0,0,1,13.23,2.4V31.06a43.65,43.65,0,0,0-26.47,0v6.35A37.51,37.51,0,0,1,57.13,35Z"/></svg>