<svg id="Layer_1" data-name="Layer 1" xmlns="http://www.w3.org/2000/svg" viewBox="0 0 328.23 114.26"><defs><style>.cls-1{fill:#fff;}.cls-2{fill:#ea0a8c;}.cls-3{fill:#faa21b;}</style></defs><rect class="cls-1" width="114.26" height="114.26"/><path class="cls-2" d="M26.77,68.16a31.64,31.64,0,0,1,.57-3.55,37.48,37.48,0,0,1-7.89-23V33H37.89V43.44a19.33,19.33,0,0,0,.37,3.76,31.23,31.23,0,0,1,5.64-3.53c0-.07,0-.15,0-.23V30a3,3,0,0,0-3-3H16.45a3,3,0,0,0-3,3V41.58a43.47,43.47,0,0,0,9.06,26.58Z"/><path class="cls-2" d="M57.13,56.67a13.23,13.23,0,0,1-11.68-7,24.67,24.67,0,0,0-4.9,3.5,19.19,19.19,0,0,0,33.16,0,24.67,24.67,0,0,0-4.9-3.5A13.24,13.24,0,0,1,57.13,56.67Z"/><path class="cls-2" d="M84.64,74.16H76a37.56,37.56,0,0,1-37.76,0H28.08a43.58,43.58,0,0,0,58.09,0Z"/><path class="cls-2" d="M97.81,27H73.36a3,3,0,0,0-2.12.88A3,3,0,0,0,70.36,30V43.44c0,.08,0,.16,0,.23A31.23,31.23,0,0,1,76,47.2a19.33,19.33,0,0,0,.37-3.76V33H94.8v8.56a37.51,37.51,0,0,1-7.88,23,31.82,31.82,0,0,1,.57,3.56h4.26a43.46,43.46,0,0,0,9-26.58V30A3,3,0,0,0,97.81,27Z"/><path class="cls-3" d="M48.65,53.58a13.18,13.18,0,0,0,17,0,19.06,19.06,0,0,0-17,0Z"/><path class="cls-3" d="M37.9,40.31V33.49A43.91,43.91,0,0,0,20.26,49.32a36.86,36.86,0,0,0,2.57,7.81A37.81,37.81,0,0,1,37.9,40.31Z"/><path class="cls-3" d="M91.42,57.13A37.16,37.16,0,0,0,94,49.31,44,44,0,0,0,76.36,33.48v6.83A37.85,37.85,0,0,1,91.42,57.13Z"/><path class="cls-3" d="M100.8,72.68a43.47,43.47,0,0,0-2.87-15.56,44.13,44.13,0,0,1-6.19,11H87.49a30.51,30.51,0,0,0-60.72,0H22.52a43.83,43.83,0,0,1-6.19-11,43.36,43.36,0,0,0-2.87,15.54V84.24a3,3,0,0,0,3,3H40.9A3,3,0,0,0,43,86.37a3,3,0,0,0,.88-2.12v-1a43,43,0,0,1-6-2.42v.47H19.45V74.16H38.25a38,38,0,0,0,5.65,2.69V74.16H70.36v2.68A37.39,37.39,0,0,0,76,74.16H94.8v7.08H76.36v-.47a42.49,42.49,0,0,1-6,2.42v1a3,3,0,0,0,3,3H97.81a3,3,0,0,0,3-3ZM76.15,68.16a19.14,19.14,0,0,0-5.53-11,19.29,19.29,0,0,1-5,3.55,13.2,13.2,0,0,1,4.47,7.48H44.18a13.2,13.2,0,0,1,4.47-7.48,19.29,19.29,0,0,1-5-3.55,19.21,19.21,0,0,0-5.54,11H32.81a24.5,24.5,0,0,1,48.64,0Z"/><path class="cls-3" d="M57.13,35a37.46,37.46,0,0,1,13.23,2.4V31.06a43.65,43.65,0,0,0-26.47,0v6.35A37.51,37.51,0,0,1,57.13,35Z"/><path class="cls-3" d="M163.62,45.69H140.88l-3,6.44H132.7l17.09-36.69h4.92L171.8,52.13h-5.19ZM143.08,41h18.34l-9.17-19.81Z"/><path class="cls-3" d="M181.24,15.44V52.13h-4.72V15.44Z"/><path class="cls-3" d="M206,15.44a18.79,18.79,0,0,1,12.74,5l-2.15,4.46a14.71,14.71,0,0,0-10.8-4.77c-7.86,0-13.52,5.5-13.52,13.63s5.61,13.63,13.58,13.63c6.86,0,11.74-4.14,12.52-10.44h-14V32.27H223.7v.21c0,11.53-6.5,19.65-17.56,19.65-10.85,0-18.61-7.91-18.61-18.34S195.34,15.44,206,15.44Z"/><path class="cls-3" d="M253.58,45.69H230.83l-3,6.44h-5.19l17.09-36.69h4.93l17.09,36.69h-5.19ZM233,41h18.35l-9.17-19.81Z"/><path class="cls-1" d="M169.34,62.13v19.7c0,10.07-7.29,17-17,17s-17.09-6.92-17.09-17V62.13h7.34v19.7c0,6,4.2,9.65,9.75,9.65s9.7-3.67,9.7-9.65V62.13Z"/><path class="cls-1" d="M208.5,62.13V98.82h-6.4L182.29,74.71V98.82H175V62.13h6.4l19.81,24.11V62.13Z"/><path class="cls-1" d="M222.29,62.13V98.82H215V62.13Z"/><path class="cls-1" d="M242.26,62.13c10.38,0,18,7.75,18,18.34s-7.6,18.35-18,18.35H229V62.13Zm0,7.33h-6v22h6c6.29,0,10.64-4.67,10.64-11S248.55,69.46,242.26,69.46Z"/><path class="cls-1" d="M282.52,62.13a17.91,17.91,0,0,1,18.34,18.34,18.35,18.35,0,1,1-36.69,0A17.92,17.92,0,0,1,282.52,62.13Zm0,7.33a10.57,10.57,0,0,0-11,11,11,11,0,1,0,22,0A10.6,10.6,0,0,0,282.52,69.46Z"/><path class="cls-1" d="M316,62.13c6.18,0,10.9,3.25,12.21,9.27l-6.66,2.68c-.73-3.31-2.72-4.62-5.61-4.62s-4.45,1.42-4.45,3.25c0,2.62,2.83,3.36,6.71,4.62,5,1.62,9.64,4,9.64,10.85S322.73,98.82,316,98.82c-5.66,0-10.85-2.73-12.27-9.28l6.55-2.83c.74,3.25,2.62,4.77,5.77,4.77,2.83,0,4.45-1.26,4.45-3.3,0-2.73-2.88-3.46-6.5-4.56-4.61-1.47-9.85-3.93-9.85-11C304.17,66,309.25,62.13,316,62.13Z"/></svg>