<svg id="Layer_1" data-name="Layer 1" xmlns="http://www.w3.org/2000/svg" viewBox="0 0 328.23 114.26"><defs><style>.cls-1{fill:#fff;}</style></defs><path class="cls-1" d="M21.59,49.57a36.86,36.86,0,0,0,1.35,4.54A39,39,0,0,1,36.65,39.6V35.55A42.52,42.52,0,0,0,21.59,49.57Z"/><path class="cls-1" d="M24,57.65l-.43.94a37.6,37.6,0,0,0,2.82,4.69A31.63,31.63,0,0,1,38.05,45.73a19.15,19.15,0,0,1-.15-2.29V41.79A36.42,36.42,0,0,0,24,57.65Z"/><path class="cls-1" d="M57.13,39.4a31.77,31.77,0,0,1,13.23,2.86V38.75l-.44-.17a36.51,36.51,0,0,0-25.58,0l-.44.16v3.51A31.77,31.77,0,0,1,57.13,39.4Z"/><path class="cls-1" d="M45.15,75.41v1.87a37.41,37.41,0,0,0,24,0V75.41Z"/><path class="cls-1" d="M19.94,47.58A45.17,45.17,0,0,1,36.12,33H19.45v8.56A37.08,37.08,0,0,0,19.94,47.58Z"/><path class="cls-1" d="M94.32,47.56a38,38,0,0,0,.48-6V33H78.13A45.16,45.16,0,0,1,94.32,47.56Z"/><path class="cls-1" d="M34.26,66.91h2.79a20.55,20.55,0,0,1,5.71-10.67l0,0a19.12,19.12,0,0,1-1.56-2A23.2,23.2,0,0,0,34.26,66.91Z"/><path class="cls-1" d="M91.32,54.11a36.64,36.64,0,0,0,1.35-4.56,42.75,42.75,0,0,0-15.06-14v4.07A38.85,38.85,0,0,1,91.32,54.11Z"/><path class="cls-1" d="M69.11,35.65V32a42.5,42.5,0,0,0-24,0v3.66A39.06,39.06,0,0,1,69.11,35.65Z"/><path class="cls-1" d="M87.89,63.27a37.55,37.55,0,0,0,2.83-4.68l-.43-.94A36.4,36.4,0,0,0,76.36,41.8v1.64a19.15,19.15,0,0,1-.15,2.29A31.54,31.54,0,0,1,87.89,63.27Z"/><path class="cls-1" d="M84.71,75.41A45.09,45.09,0,0,1,77.87,80H93.56V75.41Z"/><path class="cls-1" d="M20.71,80h15.7a43.65,43.65,0,0,1-6.86-4.59H20.71Z"/><path class="cls-1" d="M0,0V114.26H114.26V0ZM100.81,87.24a4.19,4.19,0,0,1-3,1.25H73.36a4.26,4.26,0,0,1-4.25-4.25v-.67a43.68,43.68,0,0,1-24,0v.67a4.25,4.25,0,0,1-1.25,3,4.2,4.2,0,0,1-3,1.24H16.45a4.26,4.26,0,0,1-4.25-4.25V72.68a44.56,44.56,0,0,1,2.95-16l.52-1.36a43.49,43.49,0,0,1-2.23-13.75V30a3,3,0,0,1,3-3H40.89a3,3,0,0,1,3,2.75,45.11,45.11,0,0,1,26.51,0,3,3,0,0,1,3-2.75H97.81a3,3,0,0,1,3,3V41.58a43.32,43.32,0,0,1-2.23,13.73l.53,1.36a44.7,44.7,0,0,1,3,16V84.24A4.21,4.21,0,0,1,100.81,87.24Z"/><path class="cls-1" d="M97.8,60.62a45.32,45.32,0,0,1-5.07,8.3l-.38.49h-6l-.11-1.13a29.25,29.25,0,0,0-58.22,0l-.11,1.13h-6l-.38-.49a45.58,45.58,0,0,1-5.07-8.29,42.27,42.27,0,0,0-1.75,12.05V84.24A1.76,1.76,0,0,0,16.45,86H40.9a1.74,1.74,0,0,0,1.24-.51,1.8,1.8,0,0,0,.51-1.24V84.1a43.28,43.28,0,0,1-4-1.6H18.2V72.91H38.59l.29.17A38.09,38.09,0,0,0,42.65,75V72.91h29V75a36.87,36.87,0,0,0,3.76-1.91l.29-.17H96.05v9.58H75.66c-1.32.6-2.68,1.14-4,1.61v.14A1.76,1.76,0,0,0,73.36,86H97.81a1.76,1.76,0,0,0,1.75-1.75V72.68A41.94,41.94,0,0,0,97.8,60.62ZM75.07,69.41l-.15-1.08a18.16,18.16,0,0,0-4.36-9.45A19.57,19.57,0,0,1,67.71,61a14.52,14.52,0,0,1,3.59,7l.31,1.51h-29L43,67.9a14.52,14.52,0,0,1,3.59-7,19.57,19.57,0,0,1-2.85-2.07,18.16,18.16,0,0,0-4.36,9.45l-.15,1.08h-7.8L31.57,68a25.75,25.75,0,0,1,51.12,0l.18,1.41Z"/><path class="cls-1" d="M64.81,61.63l-.45-.38a19.12,19.12,0,0,1-14.46,0l-.45.38a12,12,0,0,0-3.63,5.28H68.44A12,12,0,0,0,64.81,61.63Z"/><path class="cls-1" d="M46.09,50.71a13.56,13.56,0,0,0,1.58,2l.42-.21a20.33,20.33,0,0,1,18.08,0l.42.21a13.56,13.56,0,0,0,1.58-2,23.09,23.09,0,0,0-22.08,0Z"/><path class="cls-1" d="M63.05,53.85a17.81,17.81,0,0,0-11.84,0A12.17,12.17,0,0,0,63.05,53.85Z"/><path class="cls-1" d="M71.47,56.21l0,0a20.62,20.62,0,0,1,5.71,10.67H80a23.26,23.26,0,0,0-7-12.7A19.12,19.12,0,0,1,71.47,56.21Z"/><path class="cls-1" d="M163.62,45.69H140.88l-3,6.44H132.7l17.09-36.69h4.92L171.8,52.13h-5.19ZM143.08,41h18.34l-9.17-19.81Z"/><path class="cls-1" d="M181.24,15.44V52.13h-4.72V15.44Z"/><path class="cls-1" d="M206,15.44a18.79,18.79,0,0,1,12.74,5l-2.15,4.46a14.71,14.71,0,0,0-10.8-4.77c-7.86,0-13.52,5.5-13.52,13.63s5.61,13.63,13.58,13.63c6.86,0,11.74-4.14,12.52-10.44h-14V32.27H223.7v.21c0,11.53-6.5,19.65-17.56,19.65-10.85,0-18.61-7.91-18.61-18.34S195.34,15.44,206,15.44Z"/><path class="cls-1" d="M253.58,45.69H230.83l-3,6.44h-5.19l17.09-36.69h4.93l17.09,36.69h-5.19ZM233,41h18.35l-9.17-19.81Z"/><path class="cls-1" d="M169.34,62.13v19.7c0,10.07-7.29,17-17,17s-17.09-6.92-17.09-17V62.13h7.34v19.7c0,6,4.2,9.65,9.75,9.65s9.7-3.67,9.7-9.65V62.13Z"/><path class="cls-1" d="M208.5,62.13V98.82h-6.4L182.29,74.71V98.82H175V62.13h6.4l19.81,24.11V62.13Z"/><path class="cls-1" d="M222.29,62.13V98.82H215V62.13Z"/><path class="cls-1" d="M242.26,62.13c10.38,0,18,7.75,18,18.34s-7.6,18.35-18,18.35H229V62.13Zm0,7.33h-6v22h6c6.29,0,10.64-4.67,10.64-11S248.55,69.46,242.26,69.46Z"/><path class="cls-1" d="M282.52,62.13a17.91,17.91,0,0,1,18.34,18.34,18.35,18.35,0,1,1-36.69,0A17.92,17.92,0,0,1,282.52,62.13Zm0,7.33a10.57,10.57,0,0,0-11,11,11,11,0,1,0,22,0A10.6,10.6,0,0,0,282.52,69.46Z"/><path class="cls-1" d="M316,62.13c6.18,0,10.9,3.25,12.21,9.27l-6.66,2.68c-.73-3.31-2.72-4.62-5.61-4.62s-4.45,1.42-4.45,3.25c0,2.62,2.83,3.36,6.71,4.62,5,1.62,9.64,4,9.64,10.85S322.73,98.82,316,98.82c-5.66,0-10.85-2.73-12.27-9.28l6.55-2.83c.74,3.25,2.62,4.77,5.77,4.77,2.83,0,4.45-1.26,4.45-3.3,0-2.73-2.88-3.46-6.5-4.56-4.61-1.47-9.85-3.93-9.85-11C304.17,66,309.25,62.13,316,62.13Z"/></svg>