<svg id="Layer_1" data-name="Layer 1" xmlns="http://www.w3.org/2000/svg" viewBox="0 0 402.65 130.6"><defs><style>.cls-1{fill:#010101;}.cls-2{fill:#ec2227;}.cls-3{fill:#fff;}</style></defs><path class="cls-1" d="M173.36,37.51c15.68,0,27.17,11.73,27.17,27.73S189,93,173.36,93H153.24V37.51Zm0,11.09h-9V81.87h9c9.5,0,16.08-7.05,16.08-16.63S182.86,48.6,173.36,48.6Z"/><path class="cls-1" d="M225.39,52.41c12.12,0,19.57,8.31,19.57,21.06v2.86H215.81l.08.15c1.27,5.31,6,7.61,10.61,7.61a16.9,16.9,0,0,0,11.25-4l4.36,8.63c-3.25,2.7-8.16,5.23-15.77,5.23-13.38,0-21.22-9-21.22-20.75S213,52.41,225.39,52.41Zm-.31,8.87c-5,0-8.32,2.69-9.35,7.44h17.82C233.08,64.45,230.15,61.28,225.08,61.28Z"/><path class="cls-1" d="M266.26,93.36c-7.37,0-11.64-3.49-11.64-12.52V62.15h-7.21V53.36h7.21V42.74h10.45V53.36h10.06v8.79H265.07V79.34c0,2.53,1.27,3.56,4,3.56a33.36,33.36,0,0,0,5.79-.63v9.9A37.77,37.77,0,0,1,266.26,93.36Z"/><path class="cls-1" d="M303.09,52.41A15.14,15.14,0,0,1,307,53V64.21a15.17,15.17,0,0,0-4.75-.64c-6.89,0-10,3.88-10,11.49V93H281.78V53.36h10.06v6.49C294,55.26,297.55,52.41,303.09,52.41Z"/><path class="cls-1" d="M330.73,52.41c12.2,0,21.31,8.39,21.31,20.75s-9.11,20.75-21.31,20.75-21.3-8.4-21.3-20.75S318.53,52.41,330.73,52.41Zm0,10.21A10.15,10.15,0,0,0,320.2,73.16a10.54,10.54,0,0,0,21.07,0A10.16,10.16,0,0,0,330.73,62.62Z"/><path class="cls-1" d="M364.07,35.3A6.63,6.63,0,0,1,370.81,42a6.56,6.56,0,0,1-6.74,6.65A6.49,6.49,0,0,1,357.42,42,6.56,6.56,0,0,1,364.07,35.3Zm5.23,18.06V93H358.85V53.36Z"/><path class="cls-1" d="M393.78,93.36c-7.37,0-11.65-3.49-11.65-12.52V62.15h-7.21V53.36h7.21V42.74h10.46V53.36h10.06v8.79H392.59V79.34c0,2.53,1.26,3.56,4,3.56a33.27,33.27,0,0,0,5.78-.63v9.9A37.76,37.76,0,0,1,393.78,93.36Z"/><rect class="cls-2" width="130.6" height="130.6"/><path class="cls-3" d="M55.5,51.18a2,2,0,0,0-1.25,1.37C54.1,53,48.11,78.3,48,78.74s-.15,1.07.51,1.32,4.11,1.48,4.38,1.61.2.28-.09.28H38.1c-.26,0-.41-.08-.15-.2s3.55-1.3,3.85-1.42,1.19-.44,1.42-1.18c.16-.56,6.32-26,6.44-26.45s.09-1.25-.65-1.5c-.39-.16-4.18-1.43-4.29-1.49s-.21-.2,0-.2H60.12c.17,0,.33.12.11.18s-2.77.8-3,.89-1.23.38-1.7.6"/><path class="cls-3" d="M85.31,79.94a35.65,35.65,0,0,1-10.57,2.28c-12.81.34-17.48-8.6-15.28-16.74A21.5,21.5,0,0,1,67,54.37,27.44,27.44,0,0,1,83,49a38.45,38.45,0,0,1,8.1.91c1.37.36,1.16,1.11,1,1.67-.09.27-3.1,9.32-3.18,9.55s-.42.35-.42,0c0-.21.39-8.23.35-8.57,0-.84,0-1.36-1-1.65A21.57,21.57,0,0,0,75.67,52.1c-7.78,3.62-12.31,12-11.39,18.67.75,5.5,5.13,10,12.1,10.18a14.89,14.89,0,0,0,4.26-.42c.69-.2.78-.4,1-.81s1.31-5.31,1.35-5.52.35-.92-.36-1.11l-7.36-2c-.33-.08-.18-.26.06-.26H87.13c.48,0,1.73-.11,1.41,1.07s-2.15,6.85-2.3,7.24a1.37,1.37,0,0,1-.93.78"/><path class="cls-3" d="M28.6,65.92c0,.67-.27,1-1.37,1H19.52c-1.2,0-1.16-.68-.72-1.15s8.55-9.2,8.85-9.56c.56-.66,1.1-.63,1.1.27s-.15,9-.15,9.42m8.94,15.83c-.36-.14-3.19-1.36-3.94-1.71a1.54,1.54,0,0,1-.89-1.51c0-.46.42-29.82.3-30.05s-.24-.15-.39,0c-.48.47-28.84,31.38-29.34,31.7A13.34,13.34,0,0,1,.15,81.68s-.06,0-.15,0V82a.77.77,0,0,1,.18,0h15c.2,0,.26-.19.09-.22-1.11-.22-5.93-1.21-6.77-1.47s-.89-.71-.56-1.15,7.89-9.84,8.46-10.27a2.81,2.81,0,0,1,2.2-.62c.39,0,2.65-.07,4.83,0,1.82,0,3.57.19,4.08.23,1.13.09,1,.94,1,1.37s-.33,7.32-.36,8.5-.23,1.39-1,1.65c-.38.12-5.51,1.76-5.69,1.87s.06.11.06.11H37.35c.25,0,.34-.13.19-.2"/><path class="cls-3" d="M115.55,65.92c0,.67-.29,1-1.37,1h-7.74c-1.19,0-1.16-.68-.72-1.15s8.56-9.2,8.85-9.56c.6-.66,1.1-.63,1.1.27s-.12,9-.12,9.42m8.94,15.83c-.36-.14-3.18-1.36-3.93-1.71a1.5,1.5,0,0,1-.9-1.51c0-.46.42-29.82.3-30.05s-.24-.15-.38,0c-.48.47-28.84,31.38-29.38,31.7a14.73,14.73,0,0,1-3.1,1.57c-.11,0-.11.22,0,.22h15c.21,0,.24-.19.09-.22-1.1-.22-5.93-1.21-6.76-1.47s-.9-.71-.6-1.15,7.92-9.84,8.46-10.27a2.94,2.94,0,0,1,2.23-.62c.4,0,2.65-.07,4.83,0,1.82,0,3.55.19,4.08.23,1.13.09,1,.94,1,1.37s-.34,7.32-.37,8.5-.23,1.39-1,1.65c-.41.12-5.51,1.76-5.69,1.87s.07.11.07.11h15.87c.24,0,.33-.13.18-.2"/></svg>