<svg id="Logotypes" xmlns="http://www.w3.org/2000/svg" viewBox="0 0 269.67 84.38"><defs><style>.cls-1{fill:#010101;}.cls-2{fill:#ec008c;}.cls-3{fill:#fff;}</style></defs><path class="cls-1" d="M126.9,54.43H108.07l-2.61,5.63H97.58l16.58-35.82h6.65l16.58,35.82h-7.88Zm-15.51-7.16h12.18l-6.09-13.21Z"/><path class="cls-1" d="M148.75,60.32c-4.76,0-7.53-2.26-7.53-8.09V40.15h-4.65V34.47h4.65V27.61H148v6.86h6.5v5.68H148V51.26c0,1.63.82,2.3,2.56,2.3a20.9,20.9,0,0,0,3.73-.41v6.4A24.25,24.25,0,0,1,148.75,60.32Z"/><path class="cls-1" d="M165.58,24.24V60.06h-6.8V24.24Z"/><path class="cls-1" d="M181.75,33.91c7.47,0,11.21,3.27,11.21,10.39V60.11H186.2V56.63a9,9,0,0,1-7.88,4c-5.06,0-8.65-3.27-8.65-8s3.48-7.58,8.19-8l7-.61c1-.1,1.33-.41,1.33-1v-.41c0-1.49-1.43-2.56-4.45-2.56-2.66,0-5.42.82-6.4,3.27l-5-3.58C172,35.85,176.17,33.91,181.75,33.91ZM186.2,48.7l-6.34.77c-2.1.3-3.18,1.38-3.18,2.81,0,1.64,1.28,2.71,3.64,2.71,3.58,0,5.88-2.45,5.88-5.27Z"/><path class="cls-1" d="M213.22,33.86c6,0,9.06,3.89,9.06,10.34V60.06h-6.91V45.88c0-3.84-1.79-5.52-4.66-5.52-3.94,0-5.57,2.91-5.57,7.47V60.06h-6.76V34.47h6.55v3.69A9.88,9.88,0,0,1,213.22,33.86Z"/><path class="cls-1" d="M237.84,60.32c-4.76,0-7.53-2.26-7.53-8.09V40.15h-4.65V34.47h4.65V27.61h6.76v6.86h6.5v5.68h-6.5V51.26c0,1.63.82,2.3,2.56,2.3a20.9,20.9,0,0,0,3.73-.41v6.4A24.32,24.32,0,0,1,237.84,60.32Z"/><path class="cls-1" d="M258.46,33.91c7.47,0,11.21,3.27,11.21,10.39V60.11h-6.76V56.63a9,9,0,0,1-7.88,4c-5.07,0-8.65-3.27-8.65-8s3.48-7.58,8.19-8l7-.61c1-.1,1.33-.41,1.33-1v-.41c0-1.49-1.43-2.56-4.45-2.56-2.66,0-5.43.82-6.4,3.27l-5-3.58C248.73,35.85,252.88,33.91,258.46,33.91Zm4.45,14.79-6.35.77c-2.09.3-3.17,1.38-3.17,2.81,0,1.64,1.28,2.71,3.63,2.71,3.59,0,5.89-2.45,5.89-5.27Z"/><rect class="cls-2" width="84.38" height="84.38"/><path class="cls-3" d="M35.86,33.07a1.3,1.3,0,0,0-.81.88c-.1.31-4,16.64-4,16.92s-.1.69.32.85,2.66,1,2.83,1,.14.19-.06.19h-9.5c-.17,0-.27-.06-.1-.13S26.81,52,27,51.9a1.42,1.42,0,0,0,.93-.77C28,50.78,32,34.36,32.09,34.05s0-.81-.43-1c-.25-.1-2.69-.93-2.77-1s-.13-.13,0-.13h10c.12,0,.21.07.08.12s-1.8.51-2,.57a9.31,9.31,0,0,0-1.09.39"/><path class="cls-3" d="M55.12,51.65a23,23,0,0,1-6.83,1.47C40,53.34,37,47.57,38.42,42.31a13.9,13.9,0,0,1,4.85-7.18,17.65,17.65,0,0,1,10.35-3.46,24.59,24.59,0,0,1,5.24.59c.88.23.75.72.65,1.08-.06.17-2,6-2.06,6.17s-.27.22-.27,0,.25-5.31.23-5.53c0-.54,0-.88-.61-1.07a14,14,0,0,0-7.91.77c-5,2.34-8,7.76-7.36,12.06.49,3.56,3.32,6.46,7.82,6.58A9.53,9.53,0,0,0,52.1,52c.44-.13.5-.26.61-.52s.85-3.44.87-3.57.23-.59-.23-.72L48.6,45.94c-.22,0-.12-.16,0-.16H56.3c.31,0,1.11-.08.9.68s-1.39,4.43-1.48,4.69a.92.92,0,0,1-.6.5"/><path class="cls-3" d="M18.48,42.59c0,.43-.18.67-.89.67h-5c-.77,0-.75-.44-.46-.75s5.52-5.94,5.71-6.17c.37-.43.71-.41.71.17s-.09,5.8-.09,6.09m5.77,10.23c-.23-.09-2.06-.88-2.54-1.11a1,1,0,0,1-.58-1c0-.29.27-19.26.19-19.41s-.15-.1-.24,0c-.31.3-18.63,20.27-19,20.48a8.88,8.88,0,0,1-2,1l-.1,0V53H9.78c.13,0,.17-.12.06-.14-.72-.15-3.83-.79-4.37-1s-.58-.46-.37-.75,5.1-6.36,5.47-6.63a1.77,1.77,0,0,1,1.42-.4c.25,0,1.71,0,3.12,0,1.18,0,2.31.12,2.64.15.73.05.65.6.65.88s-.21,4.73-.23,5.49-.15.9-.66,1.07c-.24.08-3.55,1.14-3.67,1.2s0,.08,0,.08H24.13c.16,0,.22-.09.12-.13"/><path class="cls-3" d="M74.66,42.59c0,.43-.2.67-.89.67h-5c-.77,0-.75-.44-.47-.75s5.53-5.94,5.72-6.17c.39-.43.71-.41.71.17s-.07,5.8-.07,6.09m5.77,10.23c-.23-.09-2.06-.88-2.54-1.11a1,1,0,0,1-.58-1c0-.29.27-19.26.19-19.41s-.15-.1-.24,0c-.31.3-18.63,20.27-19,20.48a11.17,11.17,0,0,1-2,1c-.08,0-.08.14,0,.14H66c.13,0,.15-.12.06-.14-.72-.15-3.83-.79-4.37-1s-.58-.46-.39-.75,5.12-6.36,5.47-6.63a1.85,1.85,0,0,1,1.44-.4c.25,0,1.71,0,3.12,0,1.17,0,2.29.12,2.64.15.73.05.65.6.65.88s-.21,4.73-.23,5.49-.15.9-.66,1.07c-.26.08-3.56,1.14-3.67,1.2s0,.08,0,.08H80.32c.15,0,.2-.09.11-.13"/></svg>