<svg id="Logotypes" xmlns="http://www.w3.org/2000/svg" viewBox="0 0 427.48 190.45"><defs><style>.cls-1{fill:#4dc1b5;}.cls-2{fill:#fff;}</style></defs><title>Artboard 8</title><path d="M150.27,78.43v23.49c0,8.24-5.07,12.33-11.57,12.33-7.47,0-11.41-5.32-11.41-11.11l6.5-2.92c0,4.2,1.54,6.86,5,6.86,2.87,0,4.35-1.84,4.35-5.22V78.43Z"/><path d="M165.73,88.11c7.47,0,11.21,3.28,11.21,10.39v15.81h-6.76v-3.48a9,9,0,0,1-7.88,4c-5.07,0-8.65-3.28-8.65-8s3.48-7.57,8.19-8l7-.61c1-.1,1.33-.41,1.33-1v-.41c0-1.48-1.43-2.56-4.45-2.56-2.66,0-5.42.82-6.4,3.28l-5-3.58C156,90.05,160.15,88.11,165.73,88.11Zm4.45,14.79-6.35.77c-2.1.31-3.17,1.38-3.17,2.81,0,1.64,1.28,2.71,3.63,2.71,3.58,0,5.89-2.46,5.89-5.27Z"/><path d="M193.41,88.05a13.43,13.43,0,0,1,9.72,3.74l-3.84,5.42a8.09,8.09,0,0,0-5.89-2.56,6.81,6.81,0,0,0,0,13.61,8.4,8.4,0,0,0,6-2.61l3.74,5.42a13.74,13.74,0,0,1-9.88,3.79c-7.83,0-13.56-5.27-13.56-13.41S185.53,88.05,193.41,88.05Z"/><path d="M215.11,104.23l-2.66,2.61v7.42h-6.75V78.43h6.75V98.5l9.26-9.83h9l-11,11,11,14.59H222Z"/><path d="M242.84,88.05c4.66,0,7.93,1.48,10.18,3.79l-3.79,4.91a9.71,9.71,0,0,0-6.91-2.61c-2.1,0-3.28.67-3.28,1.79,0,1.28,1.38,1.59,5.94,2.56s8.19,2.66,8.19,8c0,5.83-4.25,8.34-11.05,8.34-4.91,0-9.11-1.38-11.36-4.25l3.94-5.12c1.69,2,4.5,3.33,8.09,3.33,1.89,0,3.43-.51,3.43-1.94s-1.38-1.69-5.68-2.61c-3.79-.77-8.5-2.51-8.5-8.09C232,91,236.14,88.05,242.84,88.05Z"/><path d="M269.5,88.05c7.88,0,13.77,5.42,13.77,13.41s-5.89,13.41-13.77,13.41-13.77-5.42-13.77-13.41S261.62,88.05,269.5,88.05Zm0,6.6a6.81,6.81,0,1,0,6.81,6.81A6.56,6.56,0,0,0,269.5,94.66Z"/><path d="M301.13,88.05c6,0,9.06,3.89,9.06,10.34v15.87h-6.91V100.08c0-3.84-1.79-5.53-4.66-5.53-3.94,0-5.58,2.92-5.58,7.47v12.23h-6.75V88.67h6.55v3.68A9.88,9.88,0,0,1,301.13,88.05Z"/><path d="M322.26,114.26,310.74,88.67h7.57l6.5,15.87,6.55-15.87h7.52l-11.51,25.59Z"/><path d="M344.62,77a4.32,4.32,0,1,1,0,8.65,4.2,4.2,0,0,1-4.3-4.3A4.24,4.24,0,0,1,344.62,77ZM348,88.67v25.59h-6.76V88.67Z"/><path d="M359.77,78.43v35.82H353V78.43Z"/><path d="M371.64,78.43v35.82h-6.81V78.43Z"/><path d="M388.22,88.05c7.83,0,12.64,5.37,12.64,13.61v1.84H382l.05.1c.82,3.43,3.89,4.91,6.86,4.91a10.89,10.89,0,0,0,7.27-2.61l2.82,5.58a15.29,15.29,0,0,1-10.18,3.38c-8.65,0-13.72-5.78-13.72-13.41S380.18,88.05,388.22,88.05ZM388,93.79a5.72,5.72,0,0,0-6,4.81h11.52A5.14,5.14,0,0,0,388,93.79Z"/><rect class="cls-1" x="31.62" y="54.2" width="84.38" height="84.38"/><path class="cls-2" d="M67.47,87.26a1.29,1.29,0,0,0-.81.88c-.1.3-4,16.64-4,16.92s-.1.69.33.85,2.66,1,2.83,1,.13.18-.06.18h-9.5c-.17,0-.27-.05-.1-.13s2.29-.84,2.48-.92a1.4,1.4,0,0,0,.92-.76c.1-.36,4.08-16.77,4.16-17.09s.05-.8-.42-1c-.25-.1-2.7-.92-2.77-1s-.13-.13,0-.13h10c.11,0,.21.08.07.12l-2,.57c-.19.06-.79.25-1.1.39"/><path class="cls-2" d="M86.74,105.85a23.17,23.17,0,0,1-6.83,1.47c-8.28.22-11.3-5.55-9.87-10.81a13.9,13.9,0,0,1,4.85-7.18,17.72,17.72,0,0,1,10.36-3.46,24.75,24.75,0,0,1,5.23.59c.88.23.75.72.65,1.08-.06.17-2,6-2.06,6.17s-.27.23-.27,0,.25-5.31.23-5.53c0-.54,0-.88-.62-1.07a14,14,0,0,0-7.91.77c-5,2.34-8,7.76-7.35,12.07.48,3.55,3.32,6.46,7.82,6.58a9.76,9.76,0,0,0,2.75-.27c.44-.13.5-.26.61-.52s.85-3.44.87-3.57.23-.59-.23-.72l-4.75-1.28c-.21-.05-.12-.16,0-.16h7.66c.31,0,1.12-.07.91.69s-1.39,4.43-1.49,4.68a.89.89,0,0,1-.6.5"/><path class="cls-2" d="M50.09,96.79c0,.43-.17.67-.88.67h-5c-.77,0-.75-.44-.46-.74s5.52-5.95,5.72-6.18c.37-.42.71-.4.71.18s-.09,5.79-.09,6.09M55.87,107c-.23-.09-2.06-.88-2.54-1.11a1,1,0,0,1-.58-1c0-.3.27-19.26.19-19.41s-.15-.1-.25,0c-.31.3-18.63,20.27-19,20.48a8.7,8.7,0,0,1-2,1s0,0-.1,0v.15h9.78c.13,0,.17-.12.06-.14-.71-.14-3.83-.79-4.37-.95s-.58-.46-.37-.74,5.1-6.36,5.47-6.63a1.79,1.79,0,0,1,1.42-.4c.25,0,1.71,0,3.12,0,1.18,0,2.31.12,2.64.15.73.06.65.6.65.88s-.21,4.72-.23,5.49-.15.89-.65,1.07c-.25.08-3.56,1.14-3.68,1.2s0,.07,0,.07H55.75c.16,0,.21-.08.12-.13"/><path class="cls-2" d="M106.27,96.79c0,.43-.19.67-.89.67h-5c-.77,0-.75-.44-.46-.74s5.53-5.95,5.72-6.18c.38-.42.71-.4.71.18s-.08,5.79-.08,6.09M112,107c-.23-.09-2.06-.88-2.54-1.11a1,1,0,0,1-.58-1c0-.3.27-19.26.19-19.41s-.15-.1-.25,0c-.31.3-18.63,20.27-19,20.48a9.93,9.93,0,0,1-2,1c-.08,0-.08.14,0,.14h9.66c.13,0,.15-.12.06-.14-.72-.14-3.83-.79-4.37-.95s-.58-.46-.39-.74,5.12-6.36,5.47-6.63a1.87,1.87,0,0,1,1.44-.4c.25,0,1.71,0,3.12,0,1.17,0,2.29.12,2.64.15.73.06.66.6.66.88S106,104,106,104.8s-.15.89-.65,1.07c-.27.08-3.56,1.14-3.67,1.2s0,.07,0,.07h10.26c.15,0,.21-.08.12-.13"/></svg>