<svg id="Layer_1" data-name="Layer 1" xmlns="http://www.w3.org/2000/svg" viewBox="0 0 376.56 84.38"><defs><style>.cls-1{fill:#0000d2;fill-rule:evenodd;}.cls-2{fill:#fff;}</style></defs><path d="M115,24.85a19.14,19.14,0,0,1,13,4.91l-3.43,6.6A13,13,0,0,0,115,32a10.3,10.3,0,0,0-10.69,10.75c0,6.35,4.5,10.75,10.64,10.75a15.25,15.25,0,0,0,7-1.69l1.54,7a21.31,21.31,0,0,1-8.5,1.84,17.57,17.57,0,0,1-17.81-18A17.5,17.5,0,0,1,115,24.85"/><path d="M141.07,40.46a6.56,6.56,0,0,0-6.81,6.81,6.81,6.81,0,0,0,13.62,0,6.56,6.56,0,0,0-6.81-6.81m0-6.6c7.88,0,13.77,5.42,13.77,13.41s-5.89,13.4-13.77,13.4-13.77-5.42-13.77-13.4,5.89-13.41,13.77-13.41"/><path d="M173.72,34.47c6,0,9.06,3.89,9.06,10.34V60.67h-6.91V46.5c0-3.84-1.8-5.53-4.66-5.53-3.94,0-5.58,2.92-5.58,7.47V60.67h-6.75V35.08h6.55v3.69a9.87,9.87,0,0,1,8.29-4.3"/><path d="M202.35,34.47c6,0,9.05,3.89,9.05,10.34V60.67h-6.91V46.5c0-3.84-1.79-5.53-4.65-5.53-3.94,0-5.58,2.92-5.58,7.47V60.67H187.5V35.08h6.55v3.69a9.9,9.9,0,0,1,8.3-4.3"/><path d="M228.09,39.59a5.73,5.73,0,0,0-6,4.81h11.52a5.14,5.14,0,0,0-5.48-4.81m.21-5.73c7.83,0,12.64,5.37,12.64,13.61v1.84H222.11l0,.1c.82,3.43,3.89,4.92,6.86,4.92a10.9,10.9,0,0,0,7.26-2.61l2.82,5.58a15.29,15.29,0,0,1-10.19,3.37c-8.65,0-13.71-5.78-13.71-13.4s5.06-13.41,13.1-13.41"/><path d="M258,33.86a13.46,13.46,0,0,1,9.73,3.73L263.84,43A8.07,8.07,0,0,0,258,40.46a6.47,6.47,0,0,0-6.7,6.81,6.5,6.5,0,0,0,6.7,6.8,8.41,8.41,0,0,0,6-2.61l3.74,5.43a13.74,13.74,0,0,1-9.88,3.78c-7.83,0-13.56-5.27-13.56-13.4S250.07,33.86,258,33.86"/><path d="M282.26,60.67c-4.76,0-7.52-2.25-7.52-8.08V40.51h-4.66V34.83h4.66V28h6.75v6.86H288v5.68h-6.5V51.62c0,1.63.82,2.3,2.56,2.3a21,21,0,0,0,3.74-.41v6.4a24.36,24.36,0,0,1-5.53.76"/><path d="M300.4,60.67h-6.76V35.08h6.76V60.67ZM297,23.42a4.33,4.33,0,1,1,0,8.65,4.33,4.33,0,0,1,0-8.65"/><path d="M317.9,33.86a13.46,13.46,0,0,1,9.73,3.73L323.79,43a8.09,8.09,0,0,0-5.89-2.56,6.47,6.47,0,0,0-6.7,6.81,6.5,6.5,0,0,0,6.7,6.8,8.41,8.41,0,0,0,6-2.61l3.74,5.43a13.74,13.74,0,0,1-9.88,3.78c-7.83,0-13.56-5.27-13.56-13.4S310,33.86,317.9,33.86"/><path d="M354.75,34.47V60.06H348.2V56.17a9.34,9.34,0,0,1-8.14,4.5c-5.94,0-8.86-4-8.86-10.28V34.47h6.91V48.7c0,3.63,1.33,5.47,4.3,5.47,3.79,0,5.53-3.07,5.53-7.47V34.47Z"/><path d="M370.83,60.67c-4.76,0-7.53-2.25-7.53-8.08V40.51h-4.66V34.83h4.66V28h6.76v6.86h6.5v5.68h-6.5V51.62c0,1.63.82,2.3,2.56,2.3a20.9,20.9,0,0,0,3.73-.41v6.4a24.28,24.28,0,0,1-5.52.76"/><polygon class="cls-1" points="0 84.38 0 0 84.37 0 84.37 84.38 0 84.38 0 84.38"/><path class="cls-2" d="M35.86,33.07a1.3,1.3,0,0,0-.81.88c-.1.31-4,16.64-4,16.92s-.1.69.32.86,2.66,1,2.83,1,.13.19-.06.19h-9.5c-.17,0-.27-.06-.1-.13S26.81,52,27,51.9s.77-.28.92-.77S32,34.36,32.09,34.05s0-.81-.43-1c-.25-.1-2.69-.93-2.77-1s-.14-.13,0-.13h10c.11,0,.21.08.08.12s-1.8.51-2,.57a9.31,9.31,0,0,0-1.09.39"/><path class="cls-2" d="M55.12,51.65a23,23,0,0,1-6.83,1.47C40,53.34,37,47.57,38.42,42.31a13.9,13.9,0,0,1,4.85-7.18,17.65,17.65,0,0,1,10.35-3.46,24.59,24.59,0,0,1,5.24.59c.88.23.74.72.65,1.08-.06.17-2,6-2.06,6.17s-.27.22-.27,0,.25-5.32.23-5.54c0-.54,0-.88-.61-1.07a14,14,0,0,0-7.91.77c-5,2.34-8,7.76-7.36,12.07.48,3.55,3.32,6.45,7.82,6.57A9.53,9.53,0,0,0,52.1,52c.44-.13.5-.26.61-.52s.85-3.44.87-3.57.23-.59-.23-.72L48.6,45.94c-.22,0-.12-.16,0-.16H56.3c.3,0,1.11-.08.9.68s-1.39,4.44-1.48,4.69a.92.92,0,0,1-.6.5"/><path class="cls-2" d="M24.25,52.82c-.23-.09-2.06-.88-2.54-1.11a1,1,0,0,1-.58-1c0-.29.27-19.26.19-19.41s-.15-.1-.24,0c-.31.3-18.63,20.27-19,20.48a8.27,8.27,0,0,1-2,1l-.1,0V53H9.78c.13,0,.17-.12.06-.14-.72-.15-3.83-.79-4.37-1s-.58-.46-.37-.75,5.1-6.36,5.47-6.63a1.77,1.77,0,0,1,1.42-.4c.25,0,1.71,0,3.12,0,1.18,0,2.31.12,2.64.15.73.05.65.6.65.88s-.21,4.73-.23,5.49-.15.9-.65,1.07c-.25.08-3.56,1.14-3.68,1.2s0,.08,0,.08H24.13c.16,0,.22-.09.12-.13M18.48,42.59c0,.43-.18.67-.88.67h-5c-.77,0-.75-.44-.46-.74s5.52-5.95,5.71-6.18c.37-.43.71-.41.71.18s-.09,5.79-.09,6.08"/><path class="cls-2" d="M80.43,52.82c-.23-.09-2.06-.88-2.54-1.11a1,1,0,0,1-.58-1c0-.29.27-19.26.19-19.41s-.15-.1-.24,0c-.31.3-18.64,20.27-19,20.48a10.51,10.51,0,0,1-2,1c-.08,0-.08.14,0,.14H66c.14,0,.16-.12.07-.14-.72-.15-3.84-.79-4.37-1s-.58-.46-.39-.75,5.12-6.36,5.47-6.63a1.85,1.85,0,0,1,1.44-.4c.25,0,1.71,0,3.12,0,1.17,0,2.29.12,2.63.15.73.05.66.6.66.88s-.22,4.73-.24,5.49-.15.9-.65,1.07c-.27.08-3.56,1.14-3.68,1.2s0,.08,0,.08H80.31c.15,0,.21-.09.12-.13M74.66,42.59c0,.43-.2.67-.89.67h-5c-.76,0-.75-.44-.46-.74s5.53-5.95,5.72-6.18c.38-.43.71-.41.71.18s-.07,5.79-.07,6.08"/></svg>