<svg id="Layer_1" data-name="Layer 1" xmlns="http://www.w3.org/2000/svg" viewBox="0 0 121.88 29.21"><path d="M25.73,12.59c0,.12,0,.8,0,1.34s0,.72,0,.76,0,.2-.27.2H23.71c-.1,0-.17,0-.18-.07s0-.08,0-.13l.79-.86,1.19-1.27a.21.21,0,0,1,.13-.09C25.73,12.47,25.73,12.56,25.73,12.59Z"/><path d="M6.35,12.59c0,.12,0,.8,0,1.34s0,.72,0,.76,0,.2-.27.2H4.33c-.1,0-.16,0-.18-.07a.14.14,0,0,1,0-.13c0-.07.63-.69,1.14-1.24l.83-.89a.21.21,0,0,1,.13-.09S6.35,12.56,6.35,12.59Z"/><path d="M29.06,0H0V18.17H0a2.52,2.52,0,0,0,.66-.32c.1-.08,3.1-3.33,4.9-5.28.93-1,1.61-1.75,1.64-1.78a.11.11,0,0,1,.07,0,.07.07,0,0,1,.07,0s0,.52-.06,6.1v.61a.29.29,0,0,0,.18.31c.16.08.79.35.87.38l0,0,0,0L9,18l.3-.11c.09,0,.26-.09.3-.24s.84-3.44,1.23-5c.12-.49.2-.82.21-.84s0-.25-.12-.29l-.55-.2-.41-.14A.06.06,0,0,1,9.88,11s0,0,.06,0h3.44a.09.09,0,0,1,.09.05s0,0-.05.06l-.68.2h-.05l-.32.12a.4.4,0,0,0-.26.28c0,.13-1.38,5.8-1.39,5.84s0,.21.09.25.34.13.57.21l.41.15c.06,0,.06.06.06.08a.09.09,0,0,1-.09.05H8.48a.14.14,0,0,1-.09,0l-.08,0H4.77s-.06,0-.06,0,0,0,0-.05L6,17.79c.15-.05.19-.07.19-.33s0-.66,0-1.11,0-.74,0-.79v0c0-.1,0-.23-.2-.25s-.54,0-.91,0H4.12a.58.58,0,0,0-.47.13c-.11.09-1.81,2.17-1.88,2.28a.14.14,0,0,0,0,.11s.06.08.14.1,1.25.27,1.5.33c0,0,.06,0,.05,0a.07.07,0,0,1-.07.06H0V29.08h29ZM19,17.85a7.61,7.61,0,0,1-2.37.51h-.15a3.34,3.34,0,0,1-2.84-1.18,3,3,0,0,1-.45-2.59,4.9,4.9,0,0,1,1.69-2.5,6.13,6.13,0,0,1,3.59-1.2,9.14,9.14,0,0,1,1.82.2.41.41,0,0,1,.24.16.34.34,0,0,1,0,.26s-.69,2.08-.71,2.13-.05.08-.09.08-.07,0-.07-.09,0-.16,0-.44c0-.5.06-1.42.06-1.47s0-.28-.19-.34a3.7,3.7,0,0,0-.88-.09,4.68,4.68,0,0,0-1.83.35,4.29,4.29,0,0,0-2.51,4.13A2.59,2.59,0,0,0,17,18h.11a3.06,3.06,0,0,0,.83-.09.25.25,0,0,0,.19-.16c0-.09.29-1.19.3-1.22v0a.22.22,0,0,0,0-.14.07.07,0,0,0-.07,0l-.79-.22-.85-.23c-.07,0-.07,0-.07-.07s0-.05.09-.05h2.71a.34.34,0,0,1,.26.08.23.23,0,0,1,0,.2c-.07.25-.47,1.53-.51,1.62A.36.36,0,0,1,19,17.85Zm8.68.45H24.15s-.06,0-.06,0,0,0,0-.05,1.26-.41,1.27-.42c.16-.05.19-.07.2-.33s0-.66,0-1.11,0-.74,0-.79v0c0-.1,0-.23-.19-.25h0c-.12,0-.5,0-.89,0H23.5a.63.63,0,0,0-.48.13c-.1.09-1.79,2.17-1.87,2.29a.11.11,0,0,0,0,.1.22.22,0,0,0,.14.1c.18.05,1.18.26,1.51.33a.05.05,0,0,1,.05,0,.08.08,0,0,1-.08.06H19.4a.08.08,0,0,1-.06,0,.08.08,0,0,1,.05-.07l.05,0a2.67,2.67,0,0,0,.63-.32c.11-.08,3.22-3.46,5.08-5.47l1.46-1.59a.11.11,0,0,1,.07,0,.09.09,0,0,1,.08,0s0,.71-.05,4.85c0,1,0,1.83,0,1.86s0,.23.18.31l.87.38s.05,0,0,.06S27.74,18.3,27.69,18.3Z"/><path d="M0,0,29.09,0V0Z"/><path d="M58.46.21v29h-5.8V17.61H39.94v11.6h-5.8V.21h5.8v11.6H52.66V.21Z"/><path d="M77,.21a14.16,14.16,0,0,1,14.5,14.5,14.5,14.5,0,0,1-29,0A14.15,14.15,0,0,1,77,.21ZM77,6a8.35,8.35,0,0,0-8.7,8.7,8.7,8.7,0,0,0,17.4,0A8.38,8.38,0,0,0,77,6Z"/><path d="M121.88.21V15.78c0,8-5.76,13.43-13.47,13.43s-13.5-5.47-13.5-13.43V.21h5.8V15.78c0,4.73,3.31,7.63,7.7,7.63s7.67-2.9,7.67-7.63V.21Z"/></svg>