<svg id="Layer_1" data-name="Layer 1" xmlns="http://www.w3.org/2000/svg" viewBox="0 0 1728 451.77"><defs><style>.cls-1{fill:#ec008c;}.cls-2{fill:#fff;}.cls-3{isolation:isolate;}.cls-4{fill:#010101;}</style></defs><g id="Design_Elements" data-name="Design Elements"><rect class="cls-1" width="451.71" height="451.71"/><path class="cls-2" d="M192,177a6.82,6.82,0,0,0-4.34,4.71c-.53,1.65-21.25,89.09-21.56,90.61-.43,2-.53,3.69,1.77,4.56S182,282,183,282.45s.72,1-.31,1H131.79c-.93,0-1.45-.31-.52-.68s12.4-4.53,13.3-4.93a7.5,7.5,0,0,0,4.94-4.1c.52-1.92,21.71-89.79,22.27-91.47.49-2.17.31-4.31-2.27-5.21-1.33-.53-14.42-4.93-14.82-5.12s-.72-.71,0-.71H208c.62,0,1.14.43.4.65s-9.58,2.76-10.48,3.1a61.8,61.8,0,0,0-5.9,2.11"/><path class="cls-2" d="M295.1,276.49a123.24,123.24,0,0,1-36.57,7.88c-44.32,1.18-60.48-29.74-52.73-57.88a74.48,74.48,0,0,1,26-38.46,95.08,95.08,0,0,1,55.46-18.61,131.11,131.11,0,0,1,27.92,3.1c4.75,1.24,4,3.85,3.51,5.77-.31.93-10.74,32.26-11,33s-1.45,1.21-1.45,0c0-.71,1.33-28.47,1.24-29.65,0-2.91,0-4.71-3.29-5.71-4.56-1.52-26.3-3.41-42.37,4.1-26.89,12.41-42.56,41.53-39.39,64.61,2.6,19,17.77,34.55,41.84,35.2a52.13,52.13,0,0,0,14.73-1.45c2.39-.69,2.7-1.4,3.29-2.8s4.56-18.39,4.68-19.1,1.21-3.1-1.27-3.85l-25.43-6.85c-1.15-.28-.62-.87.22-.87h41c1.64,0,6-.41,4.84,3.69s-7.41,23.7-7.94,25.06a4.8,4.8,0,0,1-3.1,2.67"/><path class="cls-2" d="M98.92,228c0,2.3-.93,3.57-4.72,3.57H67.49c-4.12,0-4-2.36-2.45-4s29.56-31.83,30.59-33.07c2-2.26,3.81-2.14,3.81,1s-.52,31-.52,32.57m31,54.78c-1.24-.5-11-4.72-13.61-5.93a5.33,5.33,0,0,1-3.11-5.24c0-1.58,1.49-103.13,1.06-103.94s-.81-.53-1.33,0c-1.65,1.65-99.76,108.56-101.53,109.65A46,46,0,0,1,.62,282.57a1.13,1.13,0,0,0-.53.19v.8a3.21,3.21,0,0,1,.62,0H52.45c.71,0,.9-.62.31-.74-3.81-.78-20.5-4.22-23.39-5.09s-3.1-2.45-2-4,27.33-34.12,29.28-35.51a9.6,9.6,0,0,1,7.63-2.14c1.33,0,9.15-.25,16.69,0,6.2,0,12.4.65,14.11.8,3.91.28,3.51,3.11,3.51,4.72s-1.15,25.31-1.24,29.4-.81,4.78-3.51,5.71c-1.33.4-19,6.2-19.7,6.45s.22.37.22.37h54.9c.87,0,1.15-.46.65-.68"/><path class="cls-2" d="M399.7,228c0,2.3-1,3.57-4.75,3.57h-26.8c-4.09,0-4-2.36-2.48-4s29.78-31.86,30.64-33.1c2.05-2.26,3.79-2.14,3.79,1s-.4,31-.4,32.57m31,54.78c-1.24-.5-11-4.72-13.61-5.93a5.2,5.2,0,0,1-3.11-5.24c0-1.58,1.46-103.13,1-103.94s-.81-.53-1.3,0C412,169.33,314,276.24,312.1,277.33a51.75,51.75,0,0,1-10.73,5.43c-.4.18-.4.74,0,.74h51.74c.71,0,.83-.62.34-.74-3.85-.78-20.54-4.22-23.42-5.06s-3.1-2.48-2-4,27.39-34.12,29.25-35.51a9.9,9.9,0,0,1,7.73-2.14c1.36,0,9.3-.25,16.71,0,6.21,0,12.26.65,14.12.8,3.91.28,3.5,3.1,3.5,4.72S398.14,266.88,398,271s-.81,4.78-3.5,5.71c-1.4.4-19,6.2-19.67,6.45s.22.37.22.37H430c.84,0,1.12-.46.62-.68"/><g class="cls-3"><g class="cls-3"><path class="cls-4" d="M878.4,380.66l-237.4,0-32.91,71-99.35,0L717.83,0l83.86,0,208.94,451.61-99.35,0ZM683,290.31l153.53,0L759.74,123.89Z"/></g><g class="cls-3"><path class="cls-4" d="M1220.35,90.43l-.06,361.25H1130L1130,90.41l-163.21,0V.07l416.73.07V90.46Z"/></g><g class="cls-3"><path class="cls-4" d="M1522.92.17l-.06,361.25,205.14,0,0,90.32-295.45,0L1432.61.15Z"/></g></g></g></svg>