<svg id="Layer_1" data-name="Layer 1" xmlns="http://www.w3.org/2000/svg" viewBox="0 0 534.98 133.1"><defs><style>.cls-1{fill:#782a85;}.cls-2{fill:#fff;}.cls-3{fill:#231f20;}</style></defs><rect class="cls-1" y="1.23" width="130.76" height="130.76"/><path class="cls-2" d="M55.57,52.48a2,2,0,0,0-1.25,1.37c-.15.47-6.15,25.79-6.24,26.22-.12.58-.15,1.07.51,1.32S52.71,82.88,53,83s.21.29-.09.29H38.15c-.26,0-.42-.09-.15-.2s3.55-1.31,3.85-1.43a2.17,2.17,0,0,0,1.43-1.18c.15-.55,6.32-26,6.45-26.48s.08-1.25-.66-1.51c-.39-.15-4.18-1.43-4.3-1.48s-.21-.21,0-.21H60.2c.17,0,.32.13.11.19s-2.77.79-3,.88-1.22.39-1.7.61"/><path class="cls-2" d="M85.42,81.28a36.1,36.1,0,0,1-10.58,2.28C62,83.9,57.33,75,59.54,66.8a21.56,21.56,0,0,1,7.51-11.13,27.51,27.51,0,0,1,16-5.36,38.62,38.62,0,0,1,8.12.91c1.36.36,1.15,1.12,1,1.68L89,62.46c-.12.33-.42.35-.42,0,0-.21.39-8.24.36-8.58,0-.84,0-1.37-1-1.65a21.62,21.62,0,0,0-12.26,1.18C68,57,63.44,65.42,64.37,72.1c.74,5.5,5.13,10,12.11,10.19a15.29,15.29,0,0,0,4.26-.42c.69-.2.78-.41,1-.81S83,75.73,83,75.53s.36-.92-.36-1.12l-7.36-2c-.33-.08-.18-.25.06-.25H87.25c.48,0,1.73-.12,1.4,1.06s-2.15,6.87-2.3,7.26a1.42,1.42,0,0,1-.93.78"/><path class="cls-2" d="M28.64,67.24c0,.66-.27,1-1.37,1H19.54c-1.19,0-1.16-.68-.72-1.16s8.57-9.21,8.86-9.57c.57-.65,1.1-.62,1.1.28s-.14,9-.14,9.43m9,15.85c-.36-.14-3.2-1.36-3.94-1.71a1.56,1.56,0,0,1-.9-1.52c0-.46.42-29.85.3-30.09s-.24-.15-.38,0c-.49.47-28.88,31.41-29.39,31.73A14,14,0,0,1,.15,83s-.06,0-.15,0v.24a.77.77,0,0,1,.18,0h15c.2,0,.26-.19.09-.22-1.11-.22-5.94-1.22-6.77-1.47s-.9-.71-.57-1.15,7.9-9.86,8.47-10.29a2.83,2.83,0,0,1,2.2-.62c.39,0,2.66-.07,4.84,0,1.82,0,3.58.19,4.09.23,1.13.09,1,.94,1,1.37s-.33,7.33-.36,8.51-.24,1.39-1,1.66c-.38.12-5.51,1.76-5.69,1.86s.06.12.06.12H37.4c.25,0,.33-.13.19-.2"/><path class="cls-2" d="M115.7,67.24c0,.66-.3,1-1.37,1h-7.76c-1.19,0-1.16-.68-.71-1.16s8.56-9.21,8.86-9.57c.59-.65,1.1-.62,1.1.28s-.12,9-.12,9.43m9,15.85c-.36-.14-3.19-1.36-3.94-1.71a1.54,1.54,0,0,1-.9-1.52c0-.46.43-29.85.3-30.09s-.23-.15-.38,0c-.48.47-28.87,31.41-29.41,31.73a15.75,15.75,0,0,1-3.1,1.58c-.12.05-.12.22,0,.22h15c.21,0,.24-.19.09-.22-1.11-.22-5.94-1.22-6.77-1.47s-.9-.71-.6-1.15,7.93-9.86,8.47-10.29a3,3,0,0,1,2.24-.62c.39,0,2.65-.07,4.83,0,1.82,0,3.55.19,4.09.23,1.13.09,1,.94,1,1.37s-.33,7.33-.36,8.51-.23,1.39-1,1.66c-.41.12-5.52,1.76-5.7,1.86s.06.12.06.12h15.9c.24,0,.32-.13.18-.2"/><path class="cls-3" d="M150.14,52.46h7.74V3.78h-7.74V0h20.12c18.32,0,31,7.14,31,27.43,0,21.42-11.52,28.81-31,28.81H150.14Zm12.55,0h6.71c17.12,0,26.49-6.45,26.49-25,0-17.8-10.24-23.65-26.49-23.65h-6.71Z"/><path class="cls-3" d="M238,48.5h-.17c-2.33,5.94-8.35,8.6-14.45,8.6-7.91,0-13.76-4-13.76-12.38,0-10.92,12.12-11.7,20.12-11.7H238V30.19C238,23.31,234.16,20,227.19,20c-5.93,0-10.49,2.32-11.26,8.34h-4.82c1-8.51,7.48-11.61,15.74-11.61,9.89,0,15.48,3.44,15.48,13.51V53h5.85v3.26H238Zm-13.76,5.34c10.23,0,13.76-8.35,13.76-17.55h-8.95c-5.76,0-14.62,1-14.62,8.69C214.46,50.57,219,53.84,224.27,53.84Z"/><path class="cls-3" d="M252.39,53h6.45V3.27h-6.45V0h10.75V53h6v3.26H252.39Z"/><path class="cls-3" d="M272.86,53h6.45V3.27h-6.45V0h10.75V53h6v3.26H272.86Z"/><path class="cls-3" d="M323.34,48.5h-.17c-2.33,5.94-8.35,8.6-14.45,8.6-7.91,0-13.76-4-13.76-12.38C295,33.8,307.08,33,315.08,33h8.26V30.19c0-6.88-3.87-10.24-10.84-10.24-5.93,0-10.49,2.32-11.26,8.34h-4.82c1-8.51,7.48-11.61,15.74-11.61,9.89,0,15.48,3.44,15.48,13.51V53h5.85v3.26H323.34Zm-13.76,5.34c10.23,0,13.76-8.35,13.76-17.55h-8.95c-5.76,0-14.62,1-14.62,8.69C299.77,50.57,304.33,53.84,309.58,53.84Z"/><path class="cls-3" d="M339.33,42.91h3.79c.69,6.8,5.59,10.93,12.3,10.93,5.41,0,10.92-2.33,10.92-8.52,0-11.61-26.23-1.63-26.23-17.71,0-7.83,8.51-10.93,15.13-10.93,4.39,0,9.12,1.64,11.36,5.51h.17V17.54h3.78V30.1h-3.78c-.43-7.57-5.08-10.15-12-10.15-4.73,0-9.81,2.32-9.81,7.74,0,10.75,26.23,1.89,26.23,17.72,0,8.25-7.82,11.69-15.13,11.69-5.42,0-9.81-2.06-12.64-6.7h-.26v5.84h-3.79Z"/><path class="cls-3" d="M150,128.46h7.74V79.78H150V76h43.08V92.68h-4.3V79.78H162.52V102H176.8V93.46h4.3v21.15h-4.3v-8.86H162.52v22.71h9.89v3.78H150Z"/><path class="cls-3" d="M211.71,92.68c11.27,0,18.41,8.09,18.41,20.21S223,133.1,211.71,133.1s-18.4-8.08-18.4-20.21S200.45,92.68,211.71,92.68Zm0,37.15c4.3,0,13.59-2.58,13.59-16.94S216,96,211.71,96s-13.58,2.58-13.58,16.94S207.41,129.83,211.71,129.83Z"/><path class="cls-3" d="M234.68,129H241V96.81h-6.36V93.54h10.66v7.66h.17c1.29-5.08,5.33-8.52,10.32-8.52a19.33,19.33,0,0,1,3.18.18v4a21.4,21.4,0,0,0-3.09-.34c-8.77,0-10.58,8.77-10.58,16V129h8.51v3.27H234.68Z"/><path class="cls-3" d="M289.37,96.81H276.56v22.88c0,5.42.43,9.63,5.07,9.63s5.5-3.36,5.5-8.86h4.3c0,7.83-2.32,12.64-10.23,12.64-7.48,0-8.94-6.62-8.94-11.95V96.81H265V93.54h7.23v-9.2l4.3-1.63V93.54h12.81Z"/><path class="cls-3" d="M389.73,79.78h-4.3l-12.64,52.46h-6.54L352.84,81.07h-.17l-14.11,51.17h-6.45l-12.3-52.46h-4.3V76h17.63v3.78h-8.6l10.84,47.13h.17L349.14,76h7.05l13.33,50.91h.17l11.1-47.13h-8.6V76h17.54Z"/><path class="cls-3" d="M406.42,92.68c11.26,0,18.4,8.09,18.4,20.21s-7.14,20.21-18.4,20.21S388,125,388,112.89,395.15,92.68,406.42,92.68Zm0,37.15c4.3,0,13.58-2.58,13.58-16.94S410.72,96,406.42,96s-13.59,2.58-13.59,16.94S402.12,129.83,406.42,129.83Z"/><path class="cls-3" d="M430.58,129H437V96.81h-6.37V93.54h10.67v7.66h.17c1.29-5.08,5.33-8.52,10.32-8.52a19.39,19.39,0,0,1,3.18.18v4a21.53,21.53,0,0,0-3.1-.34c-8.77,0-10.57,8.77-10.57,16V129h8.51v3.27H430.58Z"/><path class="cls-3" d="M484.5,96.81H471.69v22.88c0,5.42.43,9.63,5.07,9.63s5.51-3.36,5.51-8.86h4.3c0,7.83-2.33,12.64-10.24,12.64-7.48,0-8.94-6.62-8.94-11.95V96.81h-7.22V93.54h7.22v-9.2l4.3-1.63V93.54H484.5Z"/><path class="cls-3" d="M491.21,129h6.88V79.27h-6.88V76h11.18V99.56h.17a13.43,13.43,0,0,1,12.13-6.88c14.79,0,13.84,11,13.84,19.78V129H535v3.27H517.35V129h6.88V112.46c0-9.37.35-16.34-9.8-16-10.06,0-12,8-12,16V129h6.88v3.27H491.21Z"/></svg>