<svg id="Logotypes" xmlns="http://www.w3.org/2000/svg" viewBox="0 0 391.54 89.26"><defs><style>.cls-1{fill:#000100;}.cls-2{fill:#41c8b9;}</style></defs><path class="cls-1" d="M111.6,26.68c6,0,10.64,3.17,11.92,9.06L117,38.35c-.72-3.23-2.67-4.51-5.48-4.51S107.2,35.22,107.2,37c0,2.55,2.76,3.27,6.55,4.5,4.86,1.58,9.42,3.94,9.42,10.59s-5,10.39-11.57,10.39c-5.53,0-10.59-2.66-12-9.06l6.4-2.76c.72,3.17,2.56,4.66,5.63,4.66,2.76,0,4.35-1.23,4.35-3.23,0-2.66-2.81-3.38-6.34-4.45C105.15,46.23,100,43.82,100,37,100,30.46,105,26.68,111.6,26.68Z"/><path class="cls-1" d="M139,36.35c7.47,0,11.21,3.27,11.21,10.39V62.55h-6.76V59.07a9,9,0,0,1-7.88,4c-5.07,0-8.65-3.27-8.65-8s3.48-7.57,8.19-8l7-.62c1-.1,1.33-.41,1.33-1V45c0-1.49-1.43-2.56-4.45-2.56-2.66,0-5.43.82-6.4,3.28l-5-3.59C129.25,38.29,133.4,36.35,139,36.35Zm4.45,14.79-6.35.77c-2.09.3-3.17,1.38-3.17,2.81,0,1.64,1.28,2.71,3.63,2.71,3.59,0,5.89-2.45,5.89-5.27Z"/><path class="cls-1" d="M170.45,36.3c6,0,9.06,3.89,9.06,10.34V62.5H172.6V48.32c0-3.83-1.79-5.52-4.66-5.52-3.94,0-5.58,2.92-5.58,7.47V62.5h-6.75V36.91h6.55V40.6A9.87,9.87,0,0,1,170.45,36.3Z"/><path class="cls-1" d="M226.17,56.87H207.34l-2.61,5.63h-7.88l16.58-35.82h6.65L236.67,62.5h-7.89Zm-15.5-7.16h12.18L216.76,36.5Z"/><path class="cls-1" d="M254.52,36.3c6,0,9.06,3.89,9.06,10.34V62.5h-6.91V48.32c0-3.83-1.79-5.52-4.66-5.52-3.94,0-5.57,2.92-5.57,7.47V62.5h-6.76V36.91h6.55V40.6A9.88,9.88,0,0,1,254.52,36.3Z"/><path class="cls-1" d="M279.14,62.76c-4.76,0-7.53-2.25-7.53-8.09V42.59H267V36.91h4.66V30.05h6.76v6.86h6.5v5.68h-6.5V53.7c0,1.64.82,2.3,2.56,2.3a20.9,20.9,0,0,0,3.73-.41V62A24.32,24.32,0,0,1,279.14,62.76Z"/><path class="cls-1" d="M301.34,36.3c7.88,0,13.77,5.42,13.77,13.41s-5.89,13.41-13.77,13.41-13.76-5.43-13.76-13.41S293.46,36.3,301.34,36.3Zm0,6.6a6.55,6.55,0,0,0-6.8,6.81,6.81,6.81,0,0,0,13.61,0A6.56,6.56,0,0,0,301.34,42.9Z"/><path class="cls-1" d="M334,36.3c6,0,9.06,3.89,9.06,10.34V62.5h-6.91V48.32c0-3.83-1.79-5.52-4.66-5.52-3.94,0-5.57,2.92-5.57,7.47V62.5h-6.76V36.91h6.55V40.6A9.88,9.88,0,0,1,334,36.3Z"/><path class="cls-1" d="M352.51,25.24a4.28,4.28,0,0,1,4.35,4.35,4.33,4.33,0,1,1-4.35-4.35Zm3.38,11.67V62.5h-6.75V36.91Z"/><path class="cls-1" d="M374.06,36.3c7.88,0,13.76,5.42,13.76,13.41s-5.88,13.41-13.76,13.41-13.77-5.43-13.77-13.41S366.18,36.3,374.06,36.3Zm0,6.6a6.56,6.56,0,0,0-6.81,6.81,6.81,6.81,0,0,0,13.61,0A6.55,6.55,0,0,0,374.06,42.9Z"/><path class="cls-2" d="M76.32,38.85c-.11.13-1.87,2-3.42,3.7L70.6,45a.41.41,0,0,0-.14.36c.05.11.24.17.51.17h5c.7,0,.76-.24.76-.54,0-.12,0-1.08,0-2.21,0-1.57,0-3.53,0-3.87s-.06-.33-.1-.34S76.53,38.62,76.32,38.85Z"/><path class="cls-2" d="M2.21,2.44V55.12l0,0,.09,0a7.28,7.28,0,0,0,1.91-.94c.32-.25,9-9.67,14.18-15.3,2.71-2.94,4.66-5.07,4.77-5.17a.3.3,0,0,1,.28-.09.26.26,0,0,1,.17.14c0,.06.07.15-.16,17.7,0,1.05,0,1.71,0,1.77A.87.87,0,0,0,24,54c.48.23,2.3,1,2.54,1.1h0s0,0,.07.06a.43.43,0,0,1,.1-.07l1.59-.59.89-.33c.25-.09.72-.27.85-.68.08-.26,2.39-9.81,3.51-14.39.37-1.56.63-2.61.65-2.69.14-.59-.13-.75-.34-.82s-.9-.32-1.58-.55L31,34.67c-.14-.05-.18-.15-.17-.22a.19.19,0,0,1,.21-.15h10c.12,0,.25.06.26.17s0,.15-.15.2-1.8.51-2,.57l-.14,0c-.26.09-.7.23-.94.34h0a1.15,1.15,0,0,0-.73.81c-.08.23-3.91,16.35-4,16.91-.09.38-.07.59.24.71s1,.37,1.65.6,1.11.4,1.19.44.2.16.18.24-.1.18-.29.18H26.82c-.13,0-.21,0-.25-.09a.31.31,0,0,1-.23.09H16.09c-.18,0-.21-.1-.21-.16s0-.11.13-.15S19.65,54,19.68,54c.45-.15.55-.22.57-1,0-.41.08-1.9.14-3.21.05-1.11.09-2.16.09-2.28v-.07c0-.3,0-.64-.54-.69s-1.56-.13-2.63-.15c-1.38,0-2.82,0-3.11,0a1.7,1.7,0,0,0-1.35.38c-.32.24-5.23,6.28-5.44,6.6a.33.33,0,0,0-.08.3c0,.1.17.2.38.26.5.15,3.41.75,4.36.94a.19.19,0,0,1,.16.2c0,.1-.09.19-.24.19H2.21V86.82H86.58V2.44ZM57.37,54.21a23.83,23.83,0,0,1-6.87,1.48H50c-4.55,0-7-1.81-8.18-3.37a8.56,8.56,0,0,1-1.35-7.6,14,14,0,0,1,4.9-7.25A17.73,17.73,0,0,1,55.83,34a25.07,25.07,0,0,1,5.27.6,1.08,1.08,0,0,1,.72.45,1,1,0,0,1,0,.78c0,.06-2,6-2.06,6.18a.32.32,0,0,1-.32.24c-.09,0-.2-.1-.2-.3,0,0,0-.46.06-1.27.07-1.43.19-4.09.17-4.25,0-.55,0-.8-.52-1a13.83,13.83,0,0,0-7.82.76c-4.71,2.2-7.91,7.44-7.29,11.94.52,3.82,3.54,6.36,7.7,6.47a9.17,9.17,0,0,0,2.71-.27c.39-.11.43-.2.54-.45s.84-3.42.86-3.54l0-.06a.61.61,0,0,0,0-.4.31.31,0,0,0-.19-.12l-2.29-.61-2.46-.67c-.21,0-.22-.17-.21-.22s.13-.19.29-.19h7.73c.25,0,.68,0,.88.25a.64.64,0,0,1,.07.6c-.22.72-1.39,4.43-1.49,4.69A1,1,0,0,1,57.37,54.21Zm25.15,1.3H72.26c-.17,0-.2-.1-.2-.16s0-.12.13-.15S75.83,54,75.87,54c.43-.15.54-.22.56-1,0-.41.08-1.9.14-3.21.05-1.11.09-2.16.09-2.28v-.07c0-.3,0-.64-.54-.69h0c-.39,0-1.46-.13-2.59-.15-1.37,0-2.82,0-3.11,0A1.78,1.78,0,0,0,69,47c-.31.25-5.2,6.27-5.44,6.61a.36.36,0,0,0-.07.29.58.58,0,0,0,.39.26c.52.16,3.55.78,4.36.94a.2.2,0,0,1,.16.21.22.22,0,0,1-.25.18H58.5a.18.18,0,0,1-.19-.15.21.21,0,0,1,.12-.23l.15-.06a8.4,8.4,0,0,0,1.83-.94c.35-.26,9.29-10,14.63-15.77l4.34-4.7a.3.3,0,0,1,.28-.09.26.26,0,0,1,.17.14c0,.08,0,1.43-.12,13.95,0,2.9-.07,5.4-.07,5.51a.85.85,0,0,0,.51.87c.5.24,2.31,1,2.53,1.1h0a.17.17,0,0,1,.11.2C82.78,55.45,82.67,55.51,82.52,55.51Z"/><path class="cls-2" d="M20.56,45c0-.12,0-1.08,0-2.21,0-1.57.06-3.53.06-3.87s0-.32-.1-.34-.21,0-.39.24S19,40.1,17.77,41.43C16.28,43,14.6,44.85,14.45,45s-.18.28-.14.37.23.17.51.17h5C20.5,45.57,20.56,45.34,20.56,45Z"/></svg>