<svg xmlns="http://www.w3.org/2000/svg" viewBox="0 0 191.18 49.67"><defs><style>.cls-1{fill:#fdb913;}</style></defs><g id="Logotypes"><path d="M82.85.23c14.14,0,24.62,10.51,24.62,24.53S97,49.3,82.85,49.3,58.23,38.78,58.23,24.76,68.78.23,82.85.23Zm0,8c-9.64,0-16.6,6.94-16.6,16.54s7,16.54,16.6,16.54,16.6-6.94,16.6-16.54S92.49,8.22,82.85,8.22Z"/><path d="M115.28,49.3V.23H135c9.42,0,16,6.8,16,15.7a15.06,15.06,0,0,1-11.11,15L152.42,49.3h-10L130.76,31.63H123.3V49.3ZM135,8.22H123.3V23.64H135c4.92,0,8-3.37,8-7.71S139.9,8.22,135,8.22Z"/><path d="M167.76.23V41.3h23.42v8H159.74V.23Z"/><path class="cls-1" d="M43.57,21.38c-.11.14-3.19,3.45-3.37,3.64s-.18.43.28.44h2.94c.41,0,.52-.14.52-.39s.05-3.23.05-3.58S43.8,21.13,43.57,21.38Z"/><path class="cls-1" d="M0,0V31.08s.06,0,.06,0a5.12,5.12,0,0,0,1.19-.58c.19-.12,11-11.87,11.16-12s.12-.05.14,0-.11,11.25-.11,11.42a.58.58,0,0,0,.34.58c.28.13,1.36.6,1.5.65s0,.07-.08.07h-6s-.09,0,0,0,2-.66,2.16-.71.37-.16.38-.63.14-3.07.14-3.23.05-.48-.38-.52c-.2,0-.86-.07-1.56-.09s-1.68,0-1.83,0a1.09,1.09,0,0,0-.84.24C6,26.34,3.11,29.92,3,30.09s-.09.34.22.43,2.15.48,2.57.56c.07,0,0,.08,0,.08H0v18.5H49.66V0ZM21.11,19.46a.77.77,0,0,0-.48.52c-.06.18-2.33,9.8-2.37,10s-.06.4.2.5,1.56.56,1.66.61.08.11,0,.11h-5.6c-.1,0-.16,0-.06-.08l1.46-.54a.83.83,0,0,0,.55-.45c.06-.21,2.4-9.87,2.45-10.06s0-.47-.25-.57L17,18.91c-.07,0-.07-.08,0-.08h5.87c.07,0,.13,0,.05.07l-1.16.33C21.64,19.27,21.29,19.38,21.11,19.46ZM32.44,30.4a13.33,13.33,0,0,1-4,.87c-4.87.13-6.65-3.27-5.81-6.37a8.15,8.15,0,0,1,2.86-4.22,10.41,10.41,0,0,1,6.09-2,14.19,14.19,0,0,1,3.08.35c.52.13.44.42.39.63s-1.18,3.55-1.21,3.63-.16.14-.16,0,.15-3.13.13-3.26c0-.32,0-.52-.36-.63a8.24,8.24,0,0,0-4.66.45c-2.95,1.38-4.68,4.57-4.32,7.1a4.49,4.49,0,0,0,4.6,3.88,6.13,6.13,0,0,0,1.62-.16.45.45,0,0,0,.36-.31c0-.16.5-2,.51-2.1s.13-.35-.14-.43L28.61,27c-.13,0-.07-.09,0-.09h4.51c.18,0,.65-.05.53.4s-.82,2.61-.87,2.76A.56.56,0,0,1,32.44,30.4Zm14.84.76h-6s-.1,0,0,0,2-.66,2.17-.71.37-.16.38-.63.14-3.07.14-3.23,0-.48-.39-.52c-.2,0-.86-.07-1.55-.09s-1.69,0-1.83,0a1.13,1.13,0,0,0-.85.24c-.21.16-3.11,3.74-3.22,3.91s-.08.34.23.43,2.15.48,2.57.56c0,0,0,.08,0,.08H33.14c-.06,0-.06-.06,0-.08a5.07,5.07,0,0,0,1.18-.6c.21-.12,11-11.87,11.17-12s.13-.05.15,0-.12,11.25-.11,11.42a.57.57,0,0,0,.34.58l1.49.65C47.4,31.11,47.36,31.16,47.28,31.16Z"/><path class="cls-1" d="M7.42,25.46h2.94c.41,0,.52-.14.52-.39s0-3.23,0-3.58-.2-.36-.42-.11S7.31,24.83,7.15,25,7,25.45,7.42,25.46Z"/></g></svg>