<?xml version="1.0" encoding="utf-8"?>
<!-- Generator: Adobe Illustrator 24.3.0, SVG Export Plug-In . SVG Version: 6.00 Build 0)  -->
<svg version="1.1" id="Logotypes" xmlns="http://www.w3.org/2000/svg" xmlns:xlink="http://www.w3.org/1999/xlink" x="0px" y="0px"
	 viewBox="0 0 369.3 84.4" style="enable-background:new 0 0 369.3 84.4;" xml:space="preserve">
<style type="text/css">
	.st0{fill:#4DC1B5;}
	.st1{fill:#FFFFFF;}
</style>
<g>
	<path d="M118.7,24.2v23.5c0,8.2-5.1,12.3-11.6,12.3c-7.5,0-11.4-5.3-11.4-11.1l6.5-2.9c0,4.2,1.5,6.9,5,6.9c2.9,0,4.4-1.8,4.4-5.2
		V24.2H118.7z"/>
	<path d="M134.1,33.9c7.5,0,11.2,3.3,11.2,10.4v15.8h-6.8v-3.5c-1.7,2.6-4.7,4.1-7.9,4c-5.1,0-8.6-3.3-8.6-8s3.5-7.6,8.2-8l7-0.6
		c1-0.1,1.3-0.4,1.3-1v-0.4c0-1.5-1.4-2.6-4.4-2.6c-2.7,0-5.4,0.8-6.4,3.3l-5-3.6C124.4,35.9,128.6,33.9,134.1,33.9z M138.6,48.7
		l-6.4,0.8c-2.1,0.3-3.2,1.4-3.2,2.8c0,1.6,1.3,2.7,3.6,2.7c3.6,0,5.9-2.5,5.9-5.3V48.7z"/>
	<path d="M161.8,33.9c3.6-0.1,7.1,1.2,9.7,3.7l-3.8,5.4c-1.5-1.6-3.7-2.6-5.9-2.6c-3.8,0.1-6.7,3.3-6.5,7.1c0.1,3.6,3,6.4,6.5,6.5
		c2.3,0,4.4-1,6-2.6l3.7,5.4c-2.7,2.5-6.2,3.9-9.9,3.8c-7.8,0-13.6-5.3-13.6-13.4S153.9,33.9,161.8,33.9z"/>
	<path d="M183.5,50l-2.7,2.6v7.4h-6.8V24.2h6.8v20.1l9.3-9.8h9l-11,11l11,14.6h-8.7L183.5,50z"/>
	<path d="M211.2,33.9c4.7,0,7.9,1.5,10.2,3.8l-3.8,4.9c-1.9-1.7-4.4-2.7-6.9-2.6c-2.1,0-3.3,0.7-3.3,1.8c0,1.3,1.4,1.6,5.9,2.6
		s8.2,2.7,8.2,8c0,5.8-4.2,8.3-11.1,8.3c-4.9,0-9.1-1.4-11.4-4.2l3.9-5.1c1.7,2,4.5,3.3,8.1,3.3c1.9,0,3.4-0.5,3.4-1.9
		s-1.4-1.7-5.7-2.6c-3.8-0.8-8.5-2.5-8.5-8.1C200.4,36.8,204.6,33.9,211.2,33.9z"/>
	<path d="M237.9,33.9c7.9,0,13.8,5.4,13.8,13.4s-5.9,13.4-13.8,13.4s-13.8-5.4-13.8-13.4S230,33.9,237.9,33.9z M237.9,40.5
		c-3.8,0-6.8,3-6.8,6.8s3,6.8,6.8,6.8c3.8,0,6.8-3,6.8-6.8c0,0,0,0,0,0c0.1-3.6-2.7-6.7-6.3-6.8C238.2,40.5,238.1,40.5,237.9,40.5
		L237.9,40.5z"/>
	<path d="M269.5,33.9c6,0,9.1,3.9,9.1,10.3v15.9h-6.9V45.9c0-3.8-1.8-5.5-4.7-5.5c-3.9,0-5.6,2.9-5.6,7.5V60h-6.8V34.5h6.5v3.7
		C263.1,35.4,266.2,33.8,269.5,33.9z"/>
	<path d="M290.7,60.1l-11.5-25.6h7.6l6.5,15.9l6.5-15.9h7.5l-11.5,25.6L290.7,60.1z"/>
	<path d="M313,22.8c2.4,0,4.3,1.9,4.3,4.3c0,2.4-1.9,4.3-4.3,4.3c-2.3,0.1-4.2-1.8-4.3-4.1c0-0.1,0-0.1,0-0.2
		c-0.1-2.3,1.8-4.3,4.1-4.3C312.9,22.8,313,22.8,313,22.8z M316.4,34.5v25.6h-6.8V34.5H316.4z"/>
	<path d="M328.2,24.2V60h-6.8V24.2H328.2z"/>
	<path d="M340.1,24.2V60h-6.8V24.2H340.1z"/>
	<path d="M356.6,33.9c7.8,0,12.6,5.4,12.6,13.6v1.8h-18.9l0,0.1c0.8,3.4,3.9,4.9,6.9,4.9c2.7,0,5.2-0.9,7.3-2.6l2.8,5.6
		c-2.9,2.3-6.5,3.5-10.2,3.4c-8.6,0-13.7-5.8-13.7-13.4S348.6,33.9,356.6,33.9z M356.4,39.6c-2.9-0.2-5.5,1.9-6,4.8h11.5
		C361.8,41.6,359.3,39.4,356.4,39.6C356.5,39.6,356.4,39.6,356.4,39.6z"/>
	<rect x="0" class="st0" width="84.4" height="84.4"/>
	<path class="st1" d="M35.9,33.1c-0.4,0.1-0.7,0.5-0.8,0.9c-0.1,0.3-4,16.6-4,16.9s-0.1,0.7,0.3,0.8s2.7,1,2.8,1s0.1,0.2-0.1,0.2
		h-9.5c-0.2,0-0.3-0.1-0.1-0.1s2.3-0.8,2.5-0.9c0.4-0.1,0.7-0.4,0.9-0.8c0.1-0.4,4.1-16.8,4.2-17.1s0.1-0.8-0.4-1
		c-0.2-0.1-2.7-0.9-2.8-1s-0.1-0.1,0-0.1h10c0.1,0,0.2,0.1,0.1,0.1l-2,0.6c-0.2,0.1-0.8,0.2-1.1,0.4"/>
	<path class="st1" d="M55.2,51.6c-2.2,0.8-4.5,1.3-6.8,1.5C40,53.3,37,47.6,38.4,42.3c0.8-2.8,2.5-5.4,4.8-7.2
		c3-2.2,6.6-3.4,10.4-3.5c1.8,0,3.5,0.2,5.2,0.6c0.9,0.2,0.8,0.7,0.7,1.1c-0.1,0.2-2,6-2.1,6.2s-0.3,0.2-0.3,0s0.2-5.3,0.2-5.5
		c0-0.5,0-0.9-0.6-1.1c-2.7-0.5-5.4-0.2-7.9,0.8c-5,2.3-8,7.8-7.3,12.1c0.5,3.6,3.3,6.5,7.8,6.6c0.9,0,1.9-0.1,2.8-0.3
		c0.4-0.1,0.5-0.3,0.6-0.5s0.8-3.4,0.9-3.6s0.2-0.6-0.2-0.7L48.6,46c-0.2-0.1-0.1-0.2,0-0.2h7.7c0.3,0,1.1-0.1,0.9,0.7
		s-1.4,4.4-1.5,4.7C55.6,51.4,55.4,51.6,55.2,51.6"/>
	<path class="st1" d="M18.5,42.6c0,0.4-0.2,0.7-0.9,0.7h-5c-0.8,0-0.8-0.4-0.5-0.7s5.5-5.9,5.7-6.2c0.4-0.4,0.7-0.4,0.7,0.2
		S18.5,42.3,18.5,42.6 M24.3,52.8c-0.2-0.1-2.1-0.9-2.5-1.1c-0.4-0.2-0.6-0.6-0.6-1c0-0.3,0.3-19.3,0.2-19.4s-0.2-0.1-0.2,0
		c-0.3,0.3-18.6,20.3-19,20.5c-0.6,0.4-1.3,0.8-2,1c0,0,0,0-0.1,0v0.2h9.8c0.1,0,0.2-0.1,0.1-0.1C9.1,52.6,6,52,5.5,51.8
		s-0.6-0.5-0.4-0.7s5.1-6.4,5.5-6.6C11,44.1,11.5,44,12,44c0.2,0,1.7,0,3.1,0c1.2,0,2.3,0.1,2.6,0.2c0.7,0.1,0.7,0.6,0.7,0.9
		s-0.2,4.7-0.2,5.5s-0.2,0.9-0.7,1.1c-0.2,0.1-3.6,1.1-3.7,1.2s0,0.1,0,0.1h10.3C24.3,52.9,24.4,52.8,24.3,52.8"/>
	<path class="st1" d="M74.7,42.6c0,0.4-0.2,0.7-0.9,0.7h-5c-0.8,0-0.8-0.4-0.5-0.7s5.5-5.9,5.7-6.2c0.4-0.4,0.7-0.4,0.7,0.2
		S74.7,42.3,74.7,42.6 M80.4,52.8c-0.2-0.1-2.1-0.9-2.5-1.1c-0.4-0.2-0.6-0.6-0.6-1c0-0.3,0.3-19.3,0.2-19.4s-0.2-0.1-0.2,0
		c-0.3,0.3-18.6,20.3-19,20.5c-0.6,0.4-1.3,0.7-2,1c-0.1,0-0.1,0.1,0,0.1h9.7c0.1,0,0.2-0.1,0.1-0.1c-0.7-0.1-3.8-0.8-4.4-0.9
		s-0.6-0.5-0.4-0.7s5.1-6.4,5.5-6.6c0.4-0.3,0.9-0.5,1.4-0.4c0.2,0,1.7,0,3.1,0c1.2,0,2.3,0.1,2.6,0.2c0.7,0.1,0.7,0.6,0.7,0.9
		s-0.1,4.7-0.1,5.5s-0.2,0.9-0.7,1.1c-0.3,0.1-3.6,1.1-3.7,1.2s0,0.1,0,0.1h10.3C80.5,52.9,80.6,52.9,80.4,52.8"/>
</g>
</svg>
