<svg id="Logotypes" xmlns="http://www.w3.org/2000/svg" viewBox="0 0 1008 348.17"><defs><style>.cls-1{fill:#030303;}.cls-2{fill:#00aeef;}.cls-3{fill:#fff;}</style></defs><path class="cls-1" d="M438.1,247.83H408.53V100H437l62.3,109.18L561.43,100h28.51V247.83H560.37V161.89l-49,85.94H487.09l-49-85.94Z"/><path class="cls-1" d="M631.94,94.09a17.68,17.68,0,0,1,17.95,18c0,10.13-7.82,17.74-17.95,17.74a17.33,17.33,0,0,1-17.74-17.74C614.2,101.91,621.8,94.09,631.94,94.09Zm13.93,48.16V247.83H618V142.25Z"/><path class="cls-1" d="M714.29,139.92c30.83,0,46.25,13.51,46.25,42.87V248H732.66V233.69c-5.49,8.45-16,16.47-32.53,16.47-20.9,0-35.68-13.52-35.68-32.94,0-19.23,14.36-31.26,33.79-33.16l28.93-2.54c4-.42,5.49-1.68,5.49-4.22v-1.69c0-6.12-5.91-10.55-18.37-10.55-11,0-22.39,3.37-26.4,13.51l-20.7-14.79C674.16,148,691.27,139.92,714.29,139.92Zm18.37,61-26.19,3.17c-8.66,1.27-13.09,5.71-13.09,11.61,0,6.77,5.28,11.2,15,11.2,14.79,0,24.29-10.14,24.29-21.75Z"/><path class="cls-1" d="M911.09,139.71c24.71,0,39.92,16.47,39.92,43.92v64.2H922.92V189.34c0-15-6.55-22.81-19-22.81-17.1,0-23.23,12.88-23.23,30.84v50.46H852.81V189.34c0-15-6.55-22.81-19.22-22.81-16.89,0-22.81,12.88-22.81,30.84v50.46H782.91V142.25h27v15.42c6.33-10.14,16.47-18,32.94-18,15.63,0,26.82,6.76,32.74,19.64C882,148,893.56,139.71,911.09,139.71Z"/><path class="cls-1" d="M990.05,94.09a17.68,17.68,0,0,1,18,18c0,10.13-7.81,17.74-18,17.74a17.33,17.33,0,0,1-17.74-17.74C972.31,101.91,979.91,94.09,990.05,94.09ZM1004,142.25V247.83H976.11V142.25Z"/><polygon class="cls-2" points="0 0 0 348.17 348.16 348.17 348.18 0 0 0"/><path class="cls-3" d="M148,136.45a5.31,5.31,0,0,0-3.34,3.65c-.4,1.25-16.36,68.65-16.6,69.82-.33,1.53-.41,2.84,1.35,3.52s11,3.95,11.67,4.28.55.75-.24.75H101.58c-.7,0-1.11-.21-.4-.52s9.46-3.47,10.25-3.8c.95-.36,3.17-1.16,3.8-3.15.41-1.47,16.85-69.2,17.17-70.51.39-1.66.23-3.32-1.75-4-1-.41-11.12-3.82-11.44-4-.55-.19-.55-.54-.07-.54h41.14c.46,0,.87.32.3.49s-7.39,2.12-8.09,2.35-3.26,1-4.52,1.62"/><path class="cls-3" d="M227.45,213.12c-1.17.45-14.93,5.72-28.19,6.08-34.15.91-46.61-22.92-40.74-44.62,3-11.43,10.49-22.16,20-29.63a73.11,73.11,0,0,1,42.73-14.28c4,0,14.13.51,21.6,2.44,3.65,1,3.09,3,2.69,4.46-.23.72-8.26,24.85-8.49,25.45-.32.89-1.11.93-1.11-.05,0-.55,1-21.93.95-22.83,0-2.25,0-3.65-2.54-4.41-3.5-1.17-20.26-2.62-32.64,3.16-20.73,9.67-32.81,32-30.35,49.79,2,14.67,13.68,26.65,32.25,27.14A40.12,40.12,0,0,0,215,214.7c1.84-.54,2.08-1.09,2.54-2.16s3.5-14.17,3.59-14.72.94-2.44-1-3l-19.61-5.28c-.88-.21-.48-.67.16-.67h31.6c1.28,0,4.61-.31,3.74,2.83s-5.73,18.28-6.13,19.32a3.66,3.66,0,0,1-2.46,2.07"/><path class="cls-3" d="M76.25,175.74c0,1.78-.72,2.75-3.65,2.75l-20.57,0c-3.18-.05-3.09-1.81-1.91-3.07s22.8-24.53,23.59-25.49c1.51-1.74,2.93-1.66,2.93.73s-.39,23.9-.39,25.11M100.08,218c-1-.37-8.51-3.62-10.5-4.56a4.11,4.11,0,0,1-2.38-4c0-1.22,1.12-79.48.79-80.11-.14-.35-.63-.4-1,0-1.28,1.25-76.89,83.65-78.24,84.5-2.69,2.13-8,3.92-8.34,4.06,0,0-.16.09-.4.14v.63a1.84,1.84,0,0,1,.48-.06H40.35c.55,0,.7-.49.24-.57-2.94-.6-15.8-3.25-18-3.92s-2.39-1.89-1.52-3.07c.72-1.12,21.05-26.25,22.56-27.37,1.83-1.43,2.62-1.62,5.87-1.66,1,0,7.06-.19,12.87,0,4.85.09,9.53.5,10.89.62,3,.23,2.7,2.49,2.7,3.65s-.89,19.49-1,22.65-.63,3.69-2.7,4.41c-1,.32-14.69,4.69-15.17,5s.17.29.17.29H99.59c.64,0,.88-.34.49-.52"/><path class="cls-3" d="M308.07,175.74c0,1.78-.8,2.75-3.66,2.75l-20.65,0c-3.17-.05-3.1-1.81-1.91-3.07s22.81-24.53,23.6-25.49c1.58-1.74,2.93-1.66,2.93.73s-.31,23.9-.31,25.11M331.9,218c-1-.37-8.5-3.62-10.5-4.56-2.22-1-2.29-2.7-2.38-4s1.12-79.48.79-80.11c-.15-.35-.63-.4-1,0-1.27,1.25-76.87,83.65-78.31,84.5-2.7,2.13-7.94,4-8.26,4.2s-.32.57.08.57h39.87c.55,0,.63-.49.25-.57-2.95-.6-15.81-3.25-18-3.92s-2.39-1.89-1.6-3.07,21.12-26.25,22.56-27.37c1.9-1.43,2.7-1.62,5.95-1.66,1,0,7.06-.19,12.87,0,4.84.09,9.45.5,10.88.62,3,.23,2.71,2.49,2.71,3.65s-.89,19.49-1,22.65-.63,3.69-2.7,4.41c-1.1.32-14.69,4.69-15.17,5s.17.29.17.29h42.33c.63,0,.86-.34.48-.52"/></svg>