<svg id="Layer_1" data-name="Layer 1" xmlns="http://www.w3.org/2000/svg" viewBox="0 0 740.82 179.25"><defs><style>.cls-1{fill:#00adee;}.cls-2{fill:#fff;}</style></defs><path d="M245.77,51.49c10.32,0,20.44,3.37,27.94,10.76l-7.4,14.13A27.27,27.27,0,0,0,245,66.71c-13.38,0-22.73,9.35-22.73,22.83s9.35,22.94,23.16,22.94c8.26,0,17-4.35,18.81-13.16H242.94V84.1h38.81v5c0,24.9-16.2,38.49-36,38.49-22.94,0-38.71-16-38.71-37.94S222.61,51.49,245.77,51.49Z"/><path d="M313.49,72c15.87,0,23.81,7,23.81,22.07v33.6H323v-7.39c-2.83,4.34-8.26,8.48-16.75,8.48-10.76,0-18.37-7-18.37-17s7.39-16.1,17.4-17.07l14.89-1.31c2.07-.21,2.83-.87,2.83-2.17v-.87c0-3.16-3-5.44-9.46-5.44-5.65,0-11.52,1.74-13.59,7l-10.66-7.61C292.83,76.17,301.64,72,313.49,72ZM323,103.46l-13.48,1.63c-4.46.65-6.74,2.93-6.74,6,0,3.47,2.72,5.76,7.72,5.76,7.61,0,12.5-5.22,12.5-11.2Z"/><path d="M356.75,48.44a9.19,9.19,0,1,1,0,18.38,9.19,9.19,0,0,1,0-18.38Zm7.18,24.79v54.36H349.58V73.23Z"/><path d="M408.17,71.93c12.72,0,19.25,8.26,19.25,22v33.7H412.74V97.47c0-8.15-3.81-11.74-9.89-11.74-8.38,0-11.85,6.2-11.85,15.88v26H376.65V73.23h13.91v7.83A21,21,0,0,1,408.17,71.93Z"/><path d="M464.05,71.93c16.63,0,26.85,11.41,26.85,28.92v3.91h-40l.11.21c1.74,7.29,8.26,10.44,14.57,10.44A23.17,23.17,0,0,0,481,109.87l6,11.85c-4.46,3.7-11.2,7.17-21.64,7.17-18.37,0-29.13-12.28-29.13-28.48S447,71.93,464.05,71.93Zm-.44,12.17c-6.85,0-11.41,3.7-12.83,10.22h24.47C474.59,88.45,470.57,84.1,463.61,84.1Z"/><path d="M520.9,71.93c9.9,0,16.85,3.15,21.64,8l-8,10.44c-3-3.37-8.91-5.55-14.67-5.55-4.46,0-7,1.42-7,3.81,0,2.72,2.93,3.37,12.61,5.43,9.46,2.07,17.39,5.66,17.39,17.07,0,12.4-9,17.72-23.48,17.72-10.44,0-19.35-2.93-24.13-9L503.62,109c3.58,4.35,9.57,7.07,17.17,7.07,4,0,7.29-1.09,7.29-4.14s-2.94-3.58-12.07-5.54c-8-1.63-18.05-5.33-18.05-17.18C498,78.23,506.66,71.93,520.9,71.93Z"/><path d="M568.41,127.59,544,73.23H560l13.81,33.7,13.91-33.7h16l-24.46,54.36Z"/><path d="M617,48.44a9.19,9.19,0,1,1,0,18.38,9.19,9.19,0,0,1,0-18.38Zm7.17,24.79v54.36H609.82V73.23Z"/><path d="M651.35,51.49v76.1H636.89V51.49Z"/><path d="M677.66,51.49v76.1H663.2V51.49Z"/><path d="M714,71.93c16.64,0,26.86,11.41,26.86,28.92v3.91h-40l.11.21c1.74,7.29,8.26,10.44,14.57,10.44a23.12,23.12,0,0,0,15.43-5.54l6,11.85c-4.45,3.7-11.2,7.17-21.63,7.17-18.38,0-29.14-12.28-29.14-28.48S696.89,71.93,714,71.93Zm-.43,12.17c-6.85,0-11.42,3.7-12.83,10.22h24.46C724.51,88.45,720.49,84.1,713.53,84.1Z"/><polygon class="cls-1" points="0 0 0 179.25 179.24 179.25 179.25 0 0 0"/><path class="cls-2" d="M76.18,70.25a2.72,2.72,0,0,0-1.72,1.88c-.21.64-8.43,35.34-8.55,35.94-.17.79-.21,1.46.7,1.81s5.64,2,6,2.21.28.39-.13.39H52.3c-.37,0-.58-.12-.21-.27s4.87-1.79,5.28-2a3,3,0,0,0,2-1.62c.2-.76,8.67-35.63,8.83-36.3.2-.86.12-1.71-.9-2.06-.53-.21-5.72-2-5.88-2s-.29-.28,0-.28H82.52c.24,0,.44.17.15.25s-3.8,1.1-4.17,1.22a23.56,23.56,0,0,0-2.32.83"/><path class="cls-2" d="M117.1,109.72a49.32,49.32,0,0,1-14.52,3.13c-17.58.47-24-11.8-21-23A29.59,29.59,0,0,1,91.92,74.62a37.61,37.61,0,0,1,22-7.34A52.74,52.74,0,0,1,125,68.53c1.87.49,1.59,1.53,1.38,2.3-.12.37-4.25,12.79-4.37,13.1s-.57.48-.57,0c0-.28.53-11.29.49-11.75,0-1.16,0-1.88-1.31-2.27-1.8-.6-10.43-1.35-16.81,1.62C93.18,76.48,87,88,88.23,97.14c1,7.55,7,13.72,16.6,14a20.38,20.38,0,0,0,5.85-.58c.94-.27,1.07-.56,1.3-1.11s1.81-7.3,1.85-7.58.49-1.26-.49-1.52-9.65-2.61-10.1-2.72-.24-.35.09-.35h16.26c.66,0,2.38-.16,1.93,1.46s-3,9.41-3.16,10a1.86,1.86,0,0,1-1.26,1.06"/><path class="cls-2" d="M39.26,90.48c0,.91-.38,1.41-1.88,1.41H26.79c-1.64,0-1.6-.93-1-1.59S37.54,77.66,38,77.18c.77-.91,1.5-.86,1.5.37s-.19,12.31-.19,12.93m12.26,21.73c-.49-.19-4.38-1.87-5.4-2.35a2.11,2.11,0,0,1-1.23-2.08c0-.63.58-40.92.41-41.24s-.32-.21-.52,0c-.66.64-39.59,43.06-40.28,43.5a18.51,18.51,0,0,1-4.29,2.09s-.09,0-.21.07v.33a1,1,0,0,1,.25,0H20.78c.28,0,.36-.26.12-.3-1.52-.31-8.14-1.67-9.28-2s-1.23-1-.78-1.59S21.68,95.07,22.45,94.49c.94-.73,1.35-.83,3-.85.54,0,3.64-.1,6.63,0,2.5,0,4.91.25,5.6.31,1.56.12,1.39,1.29,1.39,1.88s-.45,10-.49,11.67-.33,1.9-1.39,2.27c-.53.16-7.56,2.41-7.81,2.55s.08.16.08.16H51.27c.33,0,.45-.18.25-.27"/><path class="cls-2" d="M158.6,90.48c0,.91-.41,1.41-1.88,1.41H146.09c-1.64,0-1.6-.93-1-1.59s11.74-12.63,12.15-13.11c.81-.91,1.5-.86,1.5.37s-.16,12.31-.16,12.93m12.27,21.73c-.49-.19-4.37-1.87-5.4-2.35a2.07,2.07,0,0,1-1.23-2.08c0-.63.58-40.92.41-41.24s-.33-.21-.53,0c-.65.64-39.57,43.06-40.31,43.5a20.57,20.57,0,0,1-4.26,2.16c-.16.07-.16.3,0,.3h20.53c.28,0,.32-.26.13-.3-1.52-.31-8.14-1.67-9.28-2s-1.23-1-.83-1.59S141,95.07,141.76,94.49c1-.73,1.39-.83,3.06-.85.54,0,3.64-.1,6.63,0,2.49,0,4.86.25,5.6.31,1.55.12,1.39,1.29,1.39,1.88s-.46,10-.5,11.67-.32,1.9-1.39,2.27c-.56.16-7.56,2.41-7.8,2.55s.08.16.08.16h21.8c.32,0,.44-.18.24-.27"/></svg>