<svg id="Layer_1" data-name="Layer 1" xmlns="http://www.w3.org/2000/svg" viewBox="0 0 375.48 202.32"><defs><style>.cls-1{fill:#3d3935;}.cls-2{fill:#ff4438;}</style></defs><path class="cls-1" d="M175.81,202.32c-9.77,0-17-7.69-17-17.47S166,167.29,176,167.29a17.65,17.65,0,0,1,13.21,5.37l-2.61,2.81c-2.86-2.71-6.05-4.65-10.65-4.65-7.5,0-13.11,6.05-13.11,13.94s5.66,14,13.11,14c4.65,0,7.69-1.79,10.94-4.89l2.51,2.47C185.83,200,182,202.32,175.81,202.32Z"/><path class="cls-1" d="M231.94,201.74l-9.82-13.16h-9.68v13.16h-3.82V167.87h14.56c7.45,0,12.24,4,12.24,10.12,0,5.66-3.87,8.94-9.19,9.91l10.4,13.84Zm-9.05-30.34H212.44v13.75h10.4c5.08,0,8.71-2.62,8.71-7C231.55,173.92,228.36,171.4,222.89,171.4Z"/><path class="cls-1" d="M287.72,201.74H283.6l-4-9H261.21l-4,9h-3.92l15.44-34.11h3.58Zm-17.27-29.66-7.74,17.27h15.43Z"/><path class="cls-1" d="M331.31,171.4H310.8v12.1h18.33V187H310.8v14.76H307V167.87h24.33Z"/><path class="cls-1" d="M364.11,201.74h-3.87V171.4H348.87v-3.53h26.61v3.53H364.11Z"/><path class="cls-2" d="M11.37,171.38H0v-3.53H26.61v3.53H11.37Z"/><path class="cls-1" d="M39.29,184.81,50.8,167.87h4.45L41.17,188.29v13.45H37.3V187.69Z"/><path class="cls-1" d="M116.8,167.87h24.48v3.49H116.8Z"/><path class="cls-1" d="M116.8,183.06h24.48v3.49H116.8Z"/><path class="cls-1" d="M116.8,198.25h24.48v3.48H116.8Z"/><path class="cls-1" d="M76.31,189.79v12H72.49V167.87h4m3.67,18.44h6.5c5.62,0,9.29-3,9.29-7.5,0-4.89-3.63-7.41-9.09-7.41v-3.53h.3c7.64,0,12.67,4.07,12.67,10.79,0,7.36-6.09,11.13-13.3,11.13H80.11m-3.8-18.39v14.91"/><path class="cls-2" d="M192.94,0H100.52v26.4h51.63l.68-.83c14.92-18.18,33-20.79,40.2-21.07h2.33l.15-4.5S194.61,0,192.94,0Z"/><path class="cls-1" d="M215,91l.12-.07L212.81,87a31.77,31.77,0,1,1-.55-55.11l2,1.16,17.87-21.37-2-1.41A57.11,57.11,0,0,0,196.69,0a59.58,59.58,0,1,0,28.95,111.66l-1.09-2Z"/></svg>